<?xml version="1.0" encoding="utf-8"?>
<!-- Generator: Adobe Illustrator 16.0.0, SVG Export Plug-In . SVG Version: 6.00 Build 0)  -->
<!DOCTYPE svg PUBLIC "-//W3C//DTD SVG 1.1//EN" "http://www.w3.org/Graphics/SVG/1.1/DTD/svg11.dtd">
<svg version="1.1" id="Layer_1" xmlns="http://www.w3.org/2000/svg" xmlns:xlink="http://www.w3.org/1999/xlink" x="0px" y="0px"
	 width="285.145px" height="27.743px" viewBox="0 0 285.145 27.743" enable-background="new 0 0 285.145 27.743"
	 xml:space="preserve">
<g>
	<path fill="#333333" d="M18.588,27.237l-1.957-6.863H7.601l-1.957,6.863H0L8.918,0.506h6.547l8.956,26.731H18.588z M8.805,16.22
		h6.623L14.6,13.294c-0.427-1.396-0.834-2.842-1.223-4.335c-0.389-1.493-0.797-2.962-1.223-4.407h-0.15
		c-0.352,1.47-0.728,2.944-1.129,4.425c-0.401,1.481-0.815,2.921-1.242,4.317L8.805,16.22z"/>
	<path fill="#333333" d="M29.576,27.237V0.506h7.639c2.132,0,4.045,0.266,5.738,0.795c1.693,0.53,3.135,1.343,4.327,2.438
		c1.191,1.096,2.107,2.475,2.747,4.136c0.64,1.662,0.959,3.625,0.959,5.889c0,2.239-0.32,4.202-0.959,5.888
		c-0.64,1.686-1.543,3.089-2.709,4.208c-1.167,1.12-2.578,1.964-4.233,2.529c-1.655,0.565-3.512,0.849-5.569,0.849H29.576z
		 M35.145,22.938h1.731c2.609,0,4.666-0.716,6.171-2.149c1.505-1.433,2.258-3.774,2.258-7.025c0-1.638-0.194-3.028-0.583-4.173
		c-0.389-1.144-0.947-2.07-1.675-2.781c-0.728-0.71-1.612-1.229-2.653-1.554s-2.214-0.487-3.518-0.487h-1.731V22.938z"/>
	<path fill="#333333" d="M56.066,27.237V0.506h6.171l4.741,12.499c0.301,0.843,0.589,1.697,0.866,2.564l0.828,2.601h0.188
		c0.301-0.866,0.583-1.733,0.847-2.601c0.264-0.867,0.546-1.722,0.847-2.564l4.628-12.499h6.171v26.731h-5.08V16.075
		c0-0.626,0.019-1.318,0.056-2.077s0.094-1.529,0.169-2.312s0.15-1.554,0.226-2.313c0.076-0.759,0.151-1.45,0.226-2.077h-0.15
		l-2.258,6.286l-4.29,11.234h-3.199l-4.327-11.234l-2.22-6.286h-0.15c0.075,0.627,0.156,1.318,0.245,2.077
		c0.087,0.759,0.163,1.53,0.226,2.313c0.063,0.782,0.119,1.553,0.169,2.312c0.05,0.759,0.075,1.451,0.075,2.077v11.162H56.066z"/>
	<path fill="#333333" d="M89.329,27.237V0.506h5.569v26.731H89.329z"/>
	<path fill="#333333" d="M102.875,27.237V0.506h5.683l8.09,14.232l2.784,5.78h0.188c-0.15-1.396-0.308-2.926-0.471-4.588
		s-0.244-3.251-0.244-4.769V0.506h5.268v26.731h-5.644l-8.053-14.305l-2.822-5.744h-0.188c0.125,1.445,0.27,2.975,0.433,4.588
		c0.163,1.614,0.245,3.191,0.245,4.732v10.729H102.875z"/>
	<path fill="#333333" d="M143.362,27.237V0.506h9.145c1.529,0,2.959,0.139,4.289,0.416c1.329,0.276,2.483,0.74,3.462,1.391
		s1.75,1.512,2.314,2.582c0.564,1.072,0.847,2.402,0.847,3.992c0,1.518-0.282,2.836-0.847,3.955c-0.564,1.12-1.33,2.041-2.296,2.764
		s-2.101,1.259-3.405,1.607c-1.305,0.35-2.709,0.524-4.214,0.524h-3.726v9.5H143.362z M148.931,13.511h3.349
		c3.788,0,5.683-1.541,5.683-4.624c0-1.59-0.489-2.679-1.468-3.27c-0.979-0.59-2.446-0.885-4.402-0.885h-3.161V13.511z"/>
	<path fill="#333333" d="M178.733,27.743c-1.832,0-3.513-0.319-5.043-0.957s-2.847-1.565-3.95-2.782
		c-1.104-1.216-1.957-2.685-2.56-4.406c-0.602-1.722-0.902-3.667-0.902-5.834c0-2.168,0.301-4.106,0.902-5.816
		c0.603-1.71,1.455-3.154,2.56-4.335c1.104-1.18,2.42-2.077,3.95-2.69C175.22,0.308,176.901,0,178.733,0
		c1.855,0,3.543,0.313,5.061,0.939c1.518,0.627,2.828,1.523,3.933,2.691c1.104,1.168,1.956,2.606,2.559,4.316
		c0.602,1.71,0.903,3.648,0.903,5.816c0,2.167-0.302,4.112-0.903,5.834c-0.603,1.722-1.455,3.19-2.559,4.406
		c-1.104,1.217-2.415,2.145-3.933,2.782S180.588,27.743,178.733,27.743z M178.733,23.119c1.028,0,1.962-0.223,2.803-0.668
		s1.556-1.071,2.146-1.879c0.589-0.807,1.04-1.788,1.354-2.943c0.313-1.156,0.47-2.444,0.47-3.865c0-2.914-0.596-5.172-1.787-6.773
		s-2.854-2.402-4.985-2.402c-2.133,0-3.795,0.801-4.986,2.402s-1.787,3.859-1.787,6.773c0,1.421,0.156,2.709,0.471,3.865
		c0.313,1.155,0.765,2.137,1.354,2.943c0.589,0.808,1.304,1.434,2.145,1.879C176.769,22.896,177.704,23.119,178.733,23.119z"/>
	<path fill="#333333" d="M217.226,27.237h-6.208l-5.72-10.114h-3.876v10.114h-5.569V0.506h9.709c1.479,0,2.853,0.133,4.12,0.397
		c1.267,0.266,2.37,0.711,3.312,1.337c0.94,0.626,1.68,1.457,2.22,2.492c0.539,1.036,0.809,2.324,0.809,3.865
		c0,2.047-0.483,3.69-1.448,4.931c-0.966,1.241-2.252,2.162-3.857,2.764L217.226,27.237z M201.422,4.732v8.164h3.612
		c1.807,0,3.18-0.355,4.12-1.065c0.941-0.71,1.411-1.788,1.411-3.233s-0.47-2.45-1.411-3.017c-0.94-0.565-2.313-0.849-4.12-0.849
		H201.422z"/>
	<path fill="#333333" d="M226.257,27.237V4.949h-7.827V0.506h21.298v4.443h-7.902v22.288H226.257z"/>
	<path fill="#333333" d="M258.466,27.237l-1.956-6.863h-9.031l-1.956,6.863h-5.645l8.918-26.731h6.547l8.956,26.731H258.466z
		 M248.683,16.22h6.623l-0.828-2.926c-0.427-1.396-0.834-2.842-1.223-4.335c-0.39-1.493-0.797-2.962-1.223-4.407h-0.151
		c-0.352,1.47-0.728,2.944-1.129,4.425c-0.401,1.481-0.815,2.921-1.241,4.317L248.683,16.22z"/>
	<path fill="#333333" d="M268.287,27.237V0.506h5.569v22.252h11.289v4.479H268.287z"/>
</g>
</svg>
