<?xml version="1.0" encoding="utf-8"?>
<!-- Generator: Adobe Illustrator 16.0.0, SVG Export Plug-In . SVG Version: 6.00 Build 0)  -->
<!DOCTYPE svg PUBLIC "-//W3C//DTD SVG 1.1//EN" "http://www.w3.org/Graphics/SVG/1.1/DTD/svg11.dtd">
<svg version="1.1" id="Layer_1" xmlns="http://www.w3.org/2000/svg" xmlns:xlink="http://www.w3.org/1999/xlink" x="0px" y="0px"
	 width="225.129px" height="65.059px" viewBox="0 0 225.129 65.059" enable-background="new 0 0 225.129 65.059"
	 xml:space="preserve">
<g>
	<path fill="#333333" d="M0,0.454h5.253v26.522H0V0.454z"/>
	<path fill="#333333" d="M11.821,0.454h4.842l11.186,16.33V0.454h5.182v26.522h-4.465l-11.561-16.86v16.86h-5.184V0.454z"/>
	<path fill="#333333" d="M44.599,5.835h-7.263V0.454h19.777v5.381H49.85v21.143h-5.251V5.835z"/>
	<path fill="#333333" d="M60.932,0.454h17.973v5.19h-12.79v5.381h11.254v5.19H66.115v5.57h12.959v5.189H60.932V0.454z"/>
	<path fill="#333333" d="M84.206,0.454h5.251v21.257h11.9v5.267H84.206V0.454z"/>
	<path fill="#333333" d="M105.484,0.454h5.252v21.257h11.9v5.267h-17.152V0.454z"/>
	<path fill="#333333" d="M130.673,16.521l-9.174-16.066h6.14l5.694,10.646l5.797-10.646h5.968l-9.173,15.951v10.571h-5.252V16.521z"
		/>
	<path fill="#333333" d="M154.563,5.835h-7.265V0.454h19.779v5.381h-7.265v21.143h-5.252V5.835H154.563z"/>
	<path fill="#333333" d="M172.602,0.454h5.252v26.522h-5.252V0.454z"/>
	<path fill="#333333" d="M194.495,27.431c-1.752,0-3.375-0.354-4.877-1.062c-1.5-0.706-2.798-1.672-3.888-2.897
		c-1.092-1.225-1.942-2.671-2.559-4.339c-0.613-1.665-0.92-3.446-0.92-5.342v-0.076c0-1.896,0.307-3.668,0.92-5.322
		c0.615-1.655,1.467-3.106,2.559-4.357c1.09-1.25,2.398-2.236,3.922-2.955C191.177,0.359,192.857,0,194.7,0
		c1.112,0,2.131,0.103,3.051,0.304c0.922,0.202,1.756,0.479,2.506,0.834c0.752,0.354,1.445,0.782,2.08,1.289
		c0.638,0.505,1.229,1.061,1.774,1.665l-3.344,4.281c-0.932-0.934-1.881-1.666-2.846-2.198c-0.967-0.529-2.053-0.794-3.258-0.794
		c-1,0-1.926,0.215-2.779,0.645c-0.852,0.43-1.586,1.022-2.199,1.781c-0.612,0.758-1.092,1.636-1.432,2.632
		c-0.342,0.999-0.512,2.064-0.512,3.202v0.075c0,1.139,0.17,2.211,0.512,3.221c0.34,1.011,0.811,1.895,1.414,2.653
		c0.604,0.758,1.33,1.355,2.182,1.799c0.854,0.442,1.791,0.664,2.814,0.664c1.363,0,2.518-0.276,3.461-0.836
		c0.943-0.556,1.881-1.312,2.813-2.271l3.342,3.749c-0.612,0.734-1.25,1.391-1.907,1.972c-0.66,0.582-1.381,1.08-2.166,1.497
		c-0.783,0.417-1.644,0.732-2.574,0.947C196.7,27.324,195.652,27.431,194.495,27.431z"/>
	<path fill="#333333" d="M216.4,27.354c-1.818,0-3.604-0.346-5.354-1.041c-1.752-0.693-3.343-1.762-4.774-3.202l3.104-4.129
		c1.092,0.984,2.211,1.769,3.359,2.349c1.147,0.582,2.402,0.873,3.768,0.873c1.091,0,1.939-0.223,2.541-0.664
		c0.602-0.44,0.904-1.055,0.904-1.838v-0.076c0-0.378-0.063-0.713-0.189-1.004c-0.125-0.29-0.365-0.563-0.718-0.813
		c-0.353-0.252-0.845-0.507-1.47-0.758c-0.627-0.254-1.441-0.519-2.445-0.798c-1.209-0.327-2.303-0.693-3.281-1.098
		c-0.98-0.404-1.813-0.902-2.496-1.498c-0.686-0.593-1.215-1.331-1.59-2.216c-0.377-0.884-0.564-1.981-0.564-3.296V8.069
		c0-1.211,0.203-2.305,0.609-3.275c0.406-0.973,0.977-1.813,1.711-2.521c0.734-0.705,1.61-1.249,2.629-1.628
		c1.021-0.38,2.144-0.568,3.371-0.568c1.75,0,3.359,0.29,4.825,0.871c1.466,0.58,2.813,1.414,4.04,2.501l-2.729,4.395
		c-1.067-0.809-2.113-1.445-3.137-1.912c-1.022-0.468-2.046-0.702-3.068-0.702c-1.023,0-1.791,0.222-2.303,0.663
		c-0.513,0.442-0.767,0.991-0.767,1.647v0.077c0,0.429,0.073,0.801,0.222,1.117c0.147,0.314,0.416,0.6,0.805,0.853
		c0.387,0.252,0.916,0.493,1.59,0.72c0.672,0.229,1.521,0.492,2.547,0.796c1.207,0.354,2.285,0.753,3.23,1.193
		c0.944,0.441,1.743,0.973,2.394,1.592c0.651,0.618,1.14,1.346,1.47,2.179c0.332,0.833,0.496,1.833,0.496,2.994v0.075
		c0,1.313-0.214,2.48-0.645,3.504c-0.428,1.023-1.025,1.883-1.793,2.577c-0.771,0.694-1.687,1.226-2.75,1.592
		C218.876,27.172,217.695,27.354,216.4,27.354z"/>
</g>
<path fill="#333333" d="M18.588,64.552l-1.957-6.863h-9.03l-1.957,6.863H0l8.918-26.73h6.547l8.956,26.73H18.588z M8.805,53.537
	h6.623L14.6,50.61c-0.427-1.396-0.834-2.842-1.223-4.335c-0.39-1.493-0.797-2.962-1.224-4.406h-0.149
	c-0.353,1.469-0.729,2.943-1.129,4.424c-0.401,1.481-0.815,2.922-1.242,4.317L8.805,53.537z"/>
<path fill="#333333" d="M52.073,64.552v-26.73h7.639c2.132,0,4.045,0.266,5.738,0.795c1.692,0.53,3.135,1.344,4.326,2.438
	c1.191,1.097,2.107,2.476,2.747,4.137c0.641,1.662,0.959,3.625,0.959,5.889c0,2.238-0.319,4.201-0.959,5.889
	c-0.64,1.686-1.543,3.088-2.709,4.207c-1.167,1.121-2.577,1.965-4.232,2.529s-3.512,0.85-5.569,0.85h-7.939V64.552z M57.642,60.254
	h1.731c2.608,0,4.666-0.715,6.171-2.148s2.258-3.773,2.258-7.025c0-1.638-0.194-3.027-0.583-4.173
	c-0.389-1.144-0.947-2.069-1.675-2.78c-0.729-0.711-1.612-1.229-2.653-1.555c-1.041-0.324-2.214-0.486-3.518-0.486h-1.731V60.254z"
	/>
<path fill="#333333" d="M100.702,64.552v-26.73h6.171l4.741,12.499c0.301,0.843,0.589,1.696,0.866,2.563l0.829,2.602h0.188
	c0.301-0.865,0.582-1.732,0.848-2.602c0.264-0.867,0.545-1.721,0.846-2.563l4.629-12.499h6.17v26.73h-5.08V53.39
	c0-0.625,0.02-1.318,0.057-2.076c0.037-0.76,0.094-1.529,0.17-2.313c0.074-0.783,0.148-1.554,0.225-2.313
	c0.076-0.76,0.152-1.45,0.227-2.077h-0.15l-2.258,6.286l-4.289,11.234h-3.2l-4.327-11.234l-2.22-6.286h-0.15
	c0.075,0.627,0.156,1.317,0.245,2.077c0.087,0.759,0.163,1.529,0.227,2.313c0.063,0.783,0.118,1.553,0.169,2.313
	c0.05,0.758,0.074,1.451,0.074,2.076v11.162H100.702z"/>
<path fill="#333333" d="M161.129,64.552v-26.73h5.568v26.73H161.129z"/>
<path fill="#333333" d="M203.831,64.552v-26.73h5.683l8.09,14.232l2.784,5.779h0.188c-0.15-1.396-0.309-2.926-0.472-4.588
	s-0.244-3.25-0.244-4.769V37.822h5.269v26.73h-5.645l-8.053-14.305l-2.822-5.744h-0.188c0.125,1.445,0.27,2.976,0.433,4.588
	c0.163,1.615,0.245,3.191,0.245,4.732v10.729H203.831z"/>
</svg>
