<?xml version="1.0" encoding="utf-8"?>
<!-- Generator: Adobe Illustrator 16.0.0, SVG Export Plug-In . SVG Version: 6.00 Build 0)  -->
<!DOCTYPE svg PUBLIC "-//W3C//DTD SVG 1.1//EN" "http://www.w3.org/Graphics/SVG/1.1/DTD/svg11.dtd">
<svg version="1.1" id="Layer_1" xmlns="http://www.w3.org/2000/svg" xmlns:xlink="http://www.w3.org/1999/xlink" x="0px" y="0px"
	 width="520.838px" height="164.287px" viewBox="0 0 520.838 164.287" enable-background="new 0 0 520.838 164.287"
	 xml:space="preserve">
<g>
	<g>
		<path d="M11.61,128.512H1.438v-1.333h21.773v1.333H12.999v28.767H11.61V128.512z"/>
		<path d="M28.521,125.889h1.308v14.878c0.245-0.631,0.585-1.283,1.021-1.957c0.436-0.673,0.98-1.29,1.634-1.849
			c0.653-0.56,1.416-1.011,2.288-1.354c0.871-0.344,1.865-0.517,2.982-0.517c1.361,0,2.566,0.23,3.615,0.688
			c1.048,0.459,1.933,1.111,2.655,1.956c0.721,0.847,1.272,1.85,1.654,3.011c0.381,1.161,0.572,2.444,0.572,3.849v12.685h-1.307
			v-12.444c0-2.517-0.627-4.548-1.879-6.094c-1.253-1.544-3.078-2.317-5.474-2.317c-1.089,0-2.104,0.223-3.043,0.666
			c-0.939,0.443-1.756,1.051-2.451,1.824c-0.694,0.772-1.246,1.688-1.654,2.745c-0.409,1.06-0.613,2.203-0.613,3.433v12.188h-1.308
			V125.889z"/>
		<path d="M61.527,157.794c-1.362,0-2.567-0.229-3.615-0.688s-1.934-1.11-2.655-1.957c-0.722-0.845-1.273-1.849-1.654-3.01
			c-0.382-1.161-0.572-2.443-0.572-3.849v-12.685h1.307v12.444c0,2.518,0.626,4.549,1.879,6.093
			c1.252,1.546,3.077,2.317,5.474,2.317c1.089,0,2.104-0.222,3.043-0.665c0.939-0.443,1.756-1.051,2.451-1.823
			c0.695-0.772,1.246-1.688,1.655-2.747c0.408-1.058,0.612-2.202,0.612-3.432v-12.188h1.308v21.672h-1.308v-5.16
			c-0.245,0.66-0.586,1.319-1.021,1.979c-0.436,0.659-0.98,1.269-1.634,1.827c-0.654,0.559-1.424,1.011-2.308,1.354
			C63.604,157.622,62.616,157.794,61.527,157.794z"/>
		<path d="M78.356,135.606h1.308v6.622c0.299-0.917,0.721-1.807,1.266-2.666c0.544-0.86,1.185-1.619,1.92-2.279
			c0.735-0.659,1.573-1.183,2.512-1.569s1.954-0.565,3.043-0.537v1.419h-0.204c-1.253,0-2.404,0.294-3.452,0.881
			c-1.048,0.588-1.947,1.362-2.696,2.322c-0.75,0.961-1.335,2.071-1.757,3.332c-0.422,1.263-0.633,2.552-0.633,3.87v10.277h-1.308
			V135.606z"/>
		<path d="M99.558,157.665c-1.471,0-2.948-0.286-4.432-0.859c-1.485-0.573-2.798-1.361-3.942-2.365l0.776-1.075
			c1.14,0.946,2.369,1.677,3.686,2.193c1.316,0.516,2.641,0.773,3.971,0.773c0.814,0,1.581-0.106,2.301-0.321
			c0.719-0.215,1.343-0.522,1.873-0.923c0.529-0.4,0.943-0.879,1.242-1.438c0.299-0.558,0.448-1.165,0.448-1.823v-0.086
			c0-0.773-0.177-1.417-0.53-1.932s-0.822-0.951-1.405-1.309c-0.584-0.357-1.25-0.665-1.996-0.923c-0.747-0.257-1.513-0.5-2.3-0.729
			c-0.951-0.286-1.86-0.586-2.729-0.9c-0.87-0.314-1.63-0.688-2.281-1.116c-0.652-0.429-1.167-0.951-1.548-1.566
			s-0.57-1.381-0.57-2.296v-0.086c0-0.801,0.169-1.545,0.508-2.231c0.34-0.687,0.814-1.287,1.425-1.803
			c0.611-0.515,1.344-0.915,2.2-1.201s1.812-0.429,2.872-0.429c1.194,0,2.423,0.215,3.686,0.644
			c1.263,0.431,2.438,1.032,3.525,1.807l-0.735,1.161c-0.974-0.745-2.029-1.312-3.166-1.698s-2.245-0.58-3.327-0.58
			c-1.704,0-3.063,0.407-4.078,1.223c-1.015,0.816-1.521,1.824-1.521,3.025v0.086c0,0.687,0.169,1.267,0.509,1.738
			c0.339,0.472,0.794,0.887,1.365,1.244c0.57,0.357,1.228,0.665,1.975,0.923c0.747,0.258,1.541,0.515,2.383,0.772
			c0.923,0.258,1.819,0.544,2.688,0.858c0.869,0.314,1.629,0.701,2.28,1.158c0.652,0.458,1.174,1.016,1.568,1.674
			c0.393,0.658,0.59,1.459,0.59,2.402v0.086c0,0.887-0.191,1.695-0.572,2.425c-0.382,0.729-0.899,1.353-1.552,1.867
			c-0.654,0.515-1.423,0.915-2.308,1.201C101.552,157.522,100.592,157.665,99.558,157.665z"/>
		<path d="M122.066,157.794c-1.389,0-2.703-0.279-3.942-0.838c-1.24-0.56-2.315-1.34-3.227-2.344
			c-0.913-1.003-1.641-2.193-2.186-3.569c-0.545-1.376-0.817-2.895-0.817-4.558v-0.086c0-1.634,0.272-3.146,0.817-4.536
			c0.544-1.391,1.272-2.587,2.186-3.591c0.912-1.003,1.987-1.784,3.227-2.344c1.239-0.559,2.553-0.839,3.942-0.839
			c1.144,0,2.192,0.166,3.146,0.495c0.953,0.33,1.818,0.789,2.594,1.376c0.776,0.588,1.443,1.269,2.001,2.042
			c0.558,0.774,1.014,1.606,1.369,2.494v-15.608h1.307v31.39h-1.307v-5.977c-0.354,0.917-0.817,1.77-1.389,2.558
			c-0.572,0.789-1.246,1.47-2.022,2.043c-0.776,0.574-1.641,1.032-2.594,1.376C124.217,157.622,123.182,157.794,122.066,157.794z
			 M122.188,156.461c1.252,0,2.431-0.258,3.534-0.773c1.103-0.517,2.063-1.226,2.88-2.129c0.817-0.902,1.463-1.956,1.94-3.16
			c0.476-1.204,0.715-2.508,0.715-3.913v-0.086c0-1.404-0.239-2.709-0.715-3.913c-0.477-1.204-1.124-2.258-1.94-3.16
			c-0.817-0.903-1.777-1.613-2.88-2.129s-2.281-0.774-3.534-0.774c-1.307,0-2.506,0.244-3.595,0.731
			c-1.089,0.488-2.029,1.176-2.819,2.064c-0.79,0.889-1.403,1.935-1.838,3.139c-0.436,1.204-0.654,2.537-0.654,3.999v0.086
			c0,1.434,0.225,2.76,0.674,3.978c0.449,1.219,1.068,2.279,1.858,3.182c0.79,0.903,1.729,1.606,2.819,2.107
			C119.724,156.211,120.908,156.461,122.188,156.461z"/>
		<path d="M146.167,157.794c-0.98,0-1.94-0.137-2.88-0.409c-0.939-0.273-1.777-0.69-2.512-1.251s-1.321-1.258-1.757-2.092
			c-0.436-0.834-0.653-1.797-0.653-2.891v-0.086c0-1.121,0.231-2.12,0.694-2.998c0.463-0.877,1.096-1.61,1.899-2.2
			c0.803-0.589,1.763-1.035,2.88-1.337s2.329-0.453,3.636-0.453c1.443,0,2.778,0.119,4.003,0.355
			c1.226,0.237,2.342,0.533,3.35,0.889v-1.454c0-2.452-0.647-4.277-1.94-5.476c-1.294-1.197-3.098-1.796-5.413-1.796
			c-1.28,0-2.458,0.165-3.534,0.494c-1.076,0.33-2.131,0.768-3.166,1.312l-0.49-1.204c1.144-0.579,2.294-1.046,3.452-1.401
			c1.157-0.355,2.431-0.533,3.819-0.533c2.86,0,5.038,0.788,6.536,2.364c0.654,0.717,1.157,1.585,1.512,2.602
			c0.354,1.019,0.531,2.201,0.531,3.548v13.502h-1.307v-4.515c-0.272,0.602-0.654,1.197-1.144,1.784
			c-0.49,0.588-1.096,1.125-1.817,1.612c-0.722,0.488-1.56,0.882-2.513,1.183C148.4,157.644,147.338,157.794,146.167,157.794z
			 M146.249,156.461c1.252,0,2.403-0.191,3.452-0.577c1.048-0.386,1.954-0.906,2.716-1.563c0.762-0.657,1.361-1.421,1.797-2.292
			c0.436-0.871,0.654-1.792,0.654-2.763v-2.656c-1.008-0.343-2.111-0.628-3.309-0.856c-1.199-0.229-2.573-0.343-4.126-0.343
			c-1.144,0-2.185,0.122-3.125,0.364c-0.939,0.243-1.743,0.6-2.41,1.071c-0.667,0.472-1.191,1.057-1.573,1.756
			s-0.572,1.492-0.572,2.377v0.086c0,0.885,0.177,1.664,0.531,2.334c0.354,0.672,0.83,1.235,1.43,1.692
			c0.599,0.457,1.287,0.8,2.063,1.028C144.554,156.347,145.377,156.461,146.249,156.461z"/>
		<path d="M165.448,164.287c-0.763,0-1.478-0.104-2.145-0.311c-0.668-0.208-1.273-0.475-1.818-0.8l0.531-1.168
			c0.49,0.286,1.028,0.516,1.614,0.688c0.585,0.172,1.205,0.258,1.858,0.258c0.572,0,1.096-0.086,1.573-0.257
			c0.477-0.173,0.926-0.474,1.348-0.902c0.422-0.43,0.851-1.017,1.287-1.76c0.435-0.745,0.898-1.689,1.389-2.834l-9.886-21.595
			h1.471l9.069,20.167l8.293-20.167h1.389l-9.273,22.23c-0.545,1.29-1.069,2.351-1.573,3.183c-0.504,0.831-1.021,1.49-1.552,1.978
			c-0.531,0.487-1.089,0.824-1.675,1.011C166.761,164.194,166.128,164.287,165.448,164.287z"/>
		<path d="M185.341,160.46c0.627-0.315,1.056-0.724,1.287-1.226c0.231-0.501,0.32-1.154,0.266-1.956h-0.898v-2.795h1.961v2.451
			c0,1.29-0.178,2.242-0.531,2.859c-0.354,0.616-0.927,1.082-1.716,1.397L185.341,160.46z"/>
		<path d="M216.428,157.708c-2.233,0-4.283-0.408-6.148-1.226c-1.865-0.816-3.615-2.014-5.249-3.59l0.939-1.075
			c1.525,1.52,3.139,2.659,4.841,3.418c1.702,0.761,3.602,1.14,5.699,1.14c1.225,0,2.342-0.164,3.35-0.494
			c1.007-0.329,1.872-0.796,2.594-1.397c0.721-0.603,1.272-1.304,1.654-2.107c0.381-0.802,0.572-1.677,0.572-2.623v-0.086
			c0-0.888-0.137-1.677-0.409-2.364c-0.272-0.688-0.742-1.305-1.409-1.85c-0.667-0.544-1.572-1.038-2.717-1.483
			c-1.144-0.444-2.573-0.853-4.289-1.226c-1.743-0.372-3.233-0.802-4.473-1.29c-1.239-0.487-2.247-1.054-3.023-1.698
			c-0.775-0.646-1.341-1.391-1.695-2.236c-0.354-0.845-0.53-1.813-0.53-2.902v-0.086c0-1.061,0.23-2.063,0.694-3.01
			c0.463-0.946,1.103-1.777,1.92-2.494c0.816-0.716,1.79-1.275,2.921-1.677c1.13-0.401,2.375-0.603,3.737-0.603
			c1.961,0,3.73,0.309,5.311,0.925c1.579,0.617,3.05,1.483,4.412,2.602l-0.858,1.161c-2.669-2.236-5.651-3.354-8.945-3.354
			c-1.172,0-2.241,0.172-3.207,0.517c-0.967,0.344-1.791,0.81-2.472,1.397s-1.205,1.262-1.572,2.021
			c-0.368,0.76-0.552,1.556-0.552,2.387v0.086c0,0.86,0.136,1.634,0.408,2.322c0.272,0.688,0.742,1.312,1.409,1.87
			c0.667,0.56,1.573,1.062,2.717,1.505c1.144,0.445,2.587,0.854,4.33,1.226c1.771,0.373,3.274,0.811,4.514,1.312
			c1.239,0.502,2.24,1.083,3.003,1.741c0.762,0.66,1.313,1.405,1.654,2.236c0.34,0.832,0.511,1.778,0.511,2.838v0.086
			c0,1.176-0.231,2.251-0.694,3.226c-0.464,0.975-1.11,1.827-1.94,2.559c-0.831,0.73-1.839,1.297-3.023,1.698
			S217.899,157.708,216.428,157.708z"/>
		<path d="M241.411,157.794c-1.393,0-2.71-0.265-3.952-0.795s-2.326-1.29-3.254-2.279c-0.929-0.989-1.666-2.186-2.212-3.591
			c-0.546-1.403-0.818-2.967-0.818-4.687v-0.086c0-1.576,0.245-3.053,0.735-4.429s1.178-2.573,2.063-3.591s1.927-1.813,3.125-2.387
			c1.198-0.573,2.506-0.86,3.922-0.86c1.553,0,2.914,0.323,4.085,0.968c1.171,0.646,2.158,1.498,2.962,2.559
			c0.803,1.061,1.402,2.272,1.797,3.634s0.593,2.773,0.593,4.235v0.473h-17.893c0.055,1.456,0.335,2.775,0.842,3.96
			s1.156,2.184,1.95,2.996c0.793,0.813,1.717,1.442,2.771,1.884c1.054,0.442,2.155,0.663,3.306,0.663
			c1.615,0,3.052-0.387,4.311-1.16c1.259-0.774,2.299-1.721,3.12-2.839l0.98,0.817c-0.954,1.29-2.127,2.365-3.52,3.225
			C244.931,157.364,243.293,157.794,241.411,157.794z M249.067,145.711c-0.056-1.169-0.268-2.311-0.637-3.424
			c-0.369-1.112-0.89-2.104-1.56-2.975c-0.671-0.87-1.506-1.569-2.505-2.097c-0.999-0.528-2.142-0.793-3.428-0.793
			c-1.177,0-2.266,0.236-3.264,0.707c-0.999,0.471-1.868,1.119-2.607,1.947s-1.327,1.813-1.765,2.954
			c-0.438,1.141-0.685,2.368-0.739,3.68H249.067z"/>
		<path d="M256.419,135.606h1.308v5.977c0.354-0.888,0.816-1.733,1.389-2.537c0.571-0.802,1.246-1.49,2.021-2.063
			c0.776-0.573,1.641-1.032,2.595-1.376c0.952-0.344,1.987-0.517,3.104-0.517c1.389,0,2.702,0.28,3.941,0.839
			c1.239,0.56,2.314,1.341,3.228,2.344c0.912,1.004,1.641,2.192,2.186,3.569c0.544,1.376,0.816,2.896,0.816,4.558v0.086
			c0,1.634-0.272,3.146-0.816,4.536c-0.545,1.392-1.273,2.588-2.186,3.591c-0.913,1.004-1.988,1.784-3.228,2.344
			c-1.239,0.559-2.553,0.838-3.941,0.838c-1.145,0-2.192-0.165-3.146-0.494c-0.954-0.329-1.818-0.788-2.594-1.376
			c-0.776-0.587-1.444-1.269-2.002-2.043c-0.559-0.773-1.015-1.604-1.368-2.493v12.771h-1.308V135.606z M266.713,156.461
			c1.308,0,2.506-0.243,3.595-0.73s2.028-1.175,2.819-2.064c0.789-0.888,1.402-1.935,1.838-3.139s0.653-2.537,0.653-3.999v-0.086
			c0-1.434-0.225-2.759-0.674-3.978c-0.449-1.218-1.069-2.279-1.858-3.182c-0.79-0.903-1.729-1.605-2.819-2.107
			c-1.089-0.501-2.273-0.753-3.554-0.753s-2.472,0.259-3.574,0.774s-2.063,1.226-2.88,2.129c-0.817,0.902-1.457,1.956-1.92,3.16
			c-0.464,1.204-0.694,2.509-0.694,3.913v0.086c0,1.405,0.238,2.709,0.715,3.913s1.123,2.258,1.94,3.16
			c0.816,0.903,1.776,1.612,2.88,2.129C264.283,156.203,265.46,156.461,266.713,156.461z"/>
		<path d="M289.834,157.665c-1.661,0-2.989-0.494-3.982-1.483c-0.995-0.989-1.491-2.473-1.491-4.45v-14.878h-3.146v-1.247h3.146
			v-7.268h1.307v7.268h7.476v1.247h-7.476v14.717c0,1.602,0.374,2.796,1.124,3.582c0.748,0.787,1.804,1.18,3.166,1.18
			c1.007,0,2.042-0.243,3.104-0.73v1.333C292.108,157.422,291.033,157.665,289.834,157.665z"/>
		<path d="M307.75,157.794c-1.393,0-2.71-0.265-3.952-0.795s-2.326-1.29-3.254-2.279c-0.929-0.989-1.666-2.186-2.212-3.591
			c-0.546-1.403-0.818-2.967-0.818-4.687v-0.086c0-1.576,0.245-3.053,0.735-4.429s1.178-2.573,2.063-3.591s1.927-1.813,3.125-2.387
			c1.198-0.573,2.506-0.86,3.922-0.86c1.553,0,2.914,0.323,4.085,0.968c1.171,0.646,2.158,1.498,2.962,2.559
			c0.803,1.061,1.402,2.272,1.797,3.634s0.593,2.773,0.593,4.235v0.473h-17.893c0.055,1.456,0.335,2.775,0.842,3.96
			s1.156,2.184,1.95,2.996c0.793,0.813,1.717,1.442,2.771,1.884c1.054,0.442,2.155,0.663,3.306,0.663
			c1.615,0,3.052-0.387,4.311-1.16c1.259-0.774,2.299-1.721,3.12-2.839l0.98,0.817c-0.954,1.29-2.127,2.365-3.52,3.225
			C311.271,157.364,309.633,157.794,307.75,157.794z M315.407,145.711c-0.056-1.169-0.268-2.311-0.637-3.424
			c-0.369-1.112-0.89-2.104-1.56-2.975c-0.671-0.87-1.506-1.569-2.505-2.097c-0.999-0.528-2.142-0.793-3.428-0.793
			c-1.177,0-2.266,0.236-3.264,0.707c-0.999,0.471-1.868,1.119-2.607,1.947s-1.327,1.813-1.765,2.954
			c-0.438,1.141-0.685,2.368-0.739,3.68H315.407z"/>
		<path d="M322.758,135.606h1.308v4.858c0.218-0.63,0.537-1.268,0.96-1.913c0.422-0.645,0.926-1.226,1.512-1.741
			c0.585-0.517,1.259-0.932,2.021-1.247s1.607-0.474,2.533-0.474c1.034,0,1.954,0.151,2.757,0.452
			c0.804,0.301,1.498,0.717,2.084,1.247c0.585,0.53,1.082,1.14,1.491,1.827c0.408,0.688,0.721,1.419,0.939,2.193
			c0.245-0.717,0.592-1.412,1.041-2.086c0.449-0.673,0.987-1.282,1.614-1.827c0.626-0.544,1.334-0.981,2.124-1.312
			c0.789-0.329,1.661-0.495,2.614-0.495c2.369,0,4.262,0.804,5.678,2.408c1.416,1.606,2.125,3.885,2.125,6.837v12.943h-1.308V144.49
			c0-2.632-0.6-4.634-1.798-6.007s-2.791-2.061-4.779-2.061c-0.871,0-1.723,0.201-2.553,0.602c-0.831,0.4-1.566,0.965-2.206,1.694
			c-0.64,0.73-1.15,1.596-1.532,2.597c-0.381,1.001-0.571,2.117-0.571,3.347v12.616h-1.308v-12.831c0-2.603-0.599-4.591-1.797-5.964
			c-1.199-1.373-2.778-2.061-4.739-2.061c-0.898,0-1.764,0.216-2.594,0.645c-0.831,0.429-1.566,1.016-2.206,1.759
			c-0.64,0.744-1.15,1.617-1.531,2.618c-0.382,1.001-0.572,2.088-0.572,3.261v12.573h-1.308V135.606z"/>
		<path d="M371.33,157.794c-1.145,0-2.192-0.165-3.146-0.494c-0.954-0.329-1.818-0.788-2.594-1.376
			c-0.776-0.587-1.444-1.269-2.002-2.043c-0.559-0.773-1.015-1.604-1.368-2.493v5.891h-1.308v-31.39h1.308v15.694
			c0.354-0.888,0.816-1.733,1.389-2.537c0.571-0.802,1.246-1.49,2.021-2.063c0.776-0.573,1.641-1.032,2.595-1.376
			c0.952-0.344,1.987-0.517,3.104-0.517c1.389,0,2.702,0.28,3.941,0.839c1.239,0.56,2.314,1.341,3.228,2.344
			c0.912,1.004,1.641,2.192,2.186,3.569c0.544,1.376,0.816,2.896,0.816,4.558v0.086c0,1.634-0.272,3.146-0.816,4.536
			c-0.545,1.392-1.273,2.588-2.186,3.591c-0.913,1.004-1.988,1.784-3.228,2.344C374.032,157.515,372.718,157.794,371.33,157.794z
			 M371.207,156.461c1.308,0,2.506-0.243,3.595-0.73s2.028-1.175,2.819-2.064c0.789-0.888,1.402-1.935,1.838-3.139
			s0.653-2.537,0.653-3.999v-0.086c0-1.434-0.225-2.759-0.674-3.978c-0.449-1.218-1.069-2.279-1.858-3.182
			c-0.79-0.903-1.729-1.605-2.819-2.107c-1.089-0.501-2.273-0.753-3.554-0.753s-2.472,0.259-3.574,0.774s-2.063,1.226-2.88,2.129
			c-0.817,0.902-1.457,1.956-1.92,3.16c-0.464,1.204-0.694,2.509-0.694,3.913v0.086c0,1.405,0.238,2.709,0.715,3.913
			s1.123,2.258,1.94,3.16c0.816,0.903,1.776,1.612,2.88,2.129C368.776,156.203,369.954,156.461,371.207,156.461z"/>
		<path d="M396.557,157.794c-1.393,0-2.709-0.265-3.951-0.795s-2.327-1.29-3.255-2.279s-1.665-2.186-2.211-3.591
			c-0.546-1.403-0.819-2.967-0.819-4.687v-0.086c0-1.576,0.245-3.053,0.735-4.429s1.178-2.573,2.063-3.591
			c0.885-1.018,1.926-1.813,3.125-2.387c1.198-0.573,2.505-0.86,3.922-0.86c1.552,0,2.913,0.323,4.085,0.968
			c1.17,0.646,2.157,1.498,2.961,2.559s1.402,2.272,1.798,3.634c0.395,1.361,0.592,2.773,0.592,4.235v0.473H387.71
			c0.055,1.456,0.335,2.775,0.842,3.96c0.506,1.185,1.155,2.184,1.949,2.996c0.794,0.813,1.718,1.442,2.771,1.884
			c1.054,0.442,2.155,0.663,3.306,0.663c1.614,0,3.052-0.387,4.311-1.16c1.258-0.774,2.299-1.721,3.12-2.839l0.98,0.817
			c-0.954,1.29-2.128,2.365-3.52,3.225C400.078,157.364,398.44,157.794,396.557,157.794z M404.213,145.711
			c-0.055-1.169-0.268-2.311-0.637-3.424c-0.369-1.112-0.89-2.104-1.56-2.975c-0.671-0.87-1.506-1.569-2.505-2.097
			c-0.999-0.528-2.141-0.793-3.427-0.793c-1.178,0-2.266,0.236-3.265,0.707s-1.867,1.119-2.606,1.947s-1.327,1.813-1.765,2.954
			c-0.438,1.141-0.685,2.368-0.739,3.68H404.213z"/>
		<path d="M411.566,135.606h1.308v6.622c0.299-0.917,0.721-1.807,1.267-2.666c0.544-0.86,1.185-1.619,1.92-2.279
			c0.735-0.659,1.572-1.183,2.512-1.569s1.954-0.565,3.044-0.537v1.419h-0.205c-1.253,0-2.403,0.294-3.451,0.881
			c-1.049,0.588-1.947,1.362-2.696,2.322c-0.749,0.961-1.335,2.071-1.757,3.332c-0.423,1.263-0.633,2.552-0.633,3.87v10.277h-1.308
			V135.606z"/>
		<path d="M436.035,156.291l12.051-11.979c1.144-1.116,2.076-2.126,2.798-3.027s1.287-1.724,1.695-2.469
			c0.408-0.744,0.694-1.445,0.857-2.104c0.164-0.659,0.245-1.317,0.245-1.976c0-0.944-0.184-1.816-0.551-2.618
			c-0.368-0.802-0.865-1.503-1.491-2.104c-0.627-0.601-1.376-1.073-2.247-1.417c-0.872-0.344-1.812-0.516-2.818-0.516
			c-1.988,0-3.684,0.538-5.086,1.612c-1.403,1.075-2.608,2.502-3.615,4.279l-1.103-0.731c0.517-0.946,1.103-1.82,1.756-2.623
			c0.654-0.802,1.382-1.484,2.186-2.048c0.804-0.563,1.695-1.007,2.676-1.333s2.069-0.489,3.269-0.489
			c1.252,0,2.396,0.202,3.431,0.604c1.035,0.402,1.926,0.962,2.673,1.679c0.747,0.718,1.318,1.551,1.716,2.498
			c0.396,0.947,0.596,1.967,0.596,3.058v0.086c0,0.804-0.093,1.587-0.278,2.348c-0.185,0.761-0.505,1.55-0.96,2.368
			s-1.077,1.701-1.866,2.648c-0.791,0.947-1.784,2.024-2.982,3.229l-10.703,10.68h17.157v1.333h-19.403V156.291z"/>
		<path d="M469.49,157.794c-1.634,0-3.159-0.351-4.575-1.053s-2.695-1.598-3.84-2.688l0.899-1.118
			c1.144,1.118,2.342,1.985,3.595,2.602c1.252,0.616,2.573,0.924,3.962,0.924c1.525,0,2.9-0.379,4.126-1.139
			s2.268-1.813,3.125-3.161c0.858-1.347,1.525-2.931,2.002-4.751c0.476-1.82,0.715-3.806,0.715-5.956v-0.086
			c0-0.401-0.007-0.853-0.021-1.354c-0.014-0.501-0.021-0.952-0.021-1.354c-0.218,1.004-0.6,1.95-1.144,2.838
			c-0.545,0.889-1.22,1.663-2.022,2.322c-0.804,0.66-1.723,1.183-2.757,1.569c-1.035,0.387-2.139,0.581-3.31,0.581
			c-1.416,0-2.73-0.229-3.941-0.688c-1.212-0.458-2.261-1.104-3.146-1.935c-0.886-0.831-1.58-1.82-2.083-2.968
			c-0.505-1.146-0.756-2.393-0.756-3.74v-0.086c0-1.376,0.251-2.659,0.756-3.849c0.503-1.189,1.197-2.236,2.083-3.14
			c0.885-0.902,1.934-1.612,3.146-2.128c1.211-0.517,2.525-0.774,3.941-0.774c1.553,0,2.921,0.287,4.105,0.86
			s2.213,1.305,3.085,2.192c1.116,1.176,1.974,2.688,2.573,4.537c0.599,1.849,0.898,4.222,0.898,7.116v0.086
			c0,2.352-0.272,4.522-0.816,6.515c-0.546,1.993-1.314,3.72-2.309,5.182s-2.192,2.602-3.595,3.418
			C472.764,157.386,471.206,157.794,469.49,157.794z M470.287,144.637c1.201,0,2.313-0.222,3.338-0.667
			c1.023-0.444,1.917-1.039,2.682-1.784s1.357-1.605,1.781-2.58c0.423-0.975,0.635-2.007,0.635-3.096v-0.087
			c0-1.175-0.219-2.271-0.655-3.289s-1.044-1.906-1.822-2.666c-0.778-0.759-1.692-1.361-2.743-1.806
			c-1.052-0.444-2.19-0.667-3.419-0.667c-1.201,0-2.313,0.23-3.338,0.688c-1.023,0.459-1.911,1.075-2.661,1.849
			c-0.751,0.774-1.338,1.677-1.761,2.709c-0.424,1.032-0.635,2.122-0.635,3.269v0.086c0,1.176,0.218,2.257,0.654,3.246
			c0.438,0.989,1.038,1.843,1.803,2.559c0.765,0.717,1.672,1.269,2.723,1.655S469.058,144.637,470.287,144.637z"/>
		<path d="M494,157.665c-1.661,0-2.989-0.494-3.983-1.483s-1.49-2.473-1.49-4.45v-14.878h-3.146v-1.247h3.146v-7.268h1.307v7.268
			h7.476v1.247h-7.476v14.717c0,1.602,0.374,2.796,1.124,3.582c0.748,0.787,1.804,1.18,3.165,1.18c1.008,0,2.043-0.243,3.105-0.73
			v1.333C496.274,157.422,495.199,157.665,494,157.665z"/>
		<path d="M503.109,125.889h1.308v14.878c0.245-0.631,0.585-1.283,1.021-1.957c0.435-0.673,0.979-1.29,1.634-1.849
			c0.653-0.56,1.415-1.011,2.287-1.354c0.871-0.344,1.865-0.517,2.982-0.517c1.361,0,2.566,0.23,3.615,0.688
			c1.048,0.459,1.934,1.111,2.655,1.956c0.721,0.847,1.272,1.85,1.654,3.011c0.381,1.161,0.572,2.444,0.572,3.849v12.685h-1.308
			v-12.444c0-2.517-0.627-4.548-1.879-6.094c-1.253-1.544-3.078-2.317-5.474-2.317c-1.09,0-2.104,0.223-3.044,0.666
			s-1.756,1.051-2.451,1.824c-0.694,0.772-1.245,1.688-1.654,2.745c-0.408,1.06-0.612,2.203-0.612,3.433v12.188h-1.308V125.889z"/>
	</g>
	<g>
		<g>
			<path fill="#191F28" d="M0,32.376l14.038-11.399c1.75-1.444,2.991-2.698,3.724-3.763c0.732-1.063,1.099-2.203,1.099-3.42
				c0-1.254-0.384-2.241-1.152-2.964c-0.769-0.722-1.777-1.083-3.027-1.083c-1.251,0-2.438,0.409-3.563,1.226
				c-1.125,0.817-2.42,2.119-3.885,3.904L0.214,8.664c1-1.368,2.018-2.584,3.054-3.647C4.304,3.953,5.42,3.06,6.617,2.337
				c1.196-0.721,2.518-1.272,3.965-1.652s3.081-0.57,4.903-0.57c2.036,0,3.902,0.313,5.599,0.94
				c1.696,0.627,3.152,1.492,4.367,2.594c1.214,1.103,2.161,2.442,2.84,4.019c0.678,1.577,1.018,3.297,1.018,5.158v0.114
				c0,1.596-0.188,3.021-0.563,4.274s-0.938,2.423-1.688,3.506c-0.75,1.083-1.661,2.119-2.733,3.106
				c-1.071,0.988-2.304,2.015-3.697,3.078l-6.43,4.788h15.485v9.006H0V32.376z"/>
			<path fill="#191F28" d="M52.508,41.496c-2.679,0-5.09-0.541-7.233-1.624c-2.144-1.083-3.957-2.565-5.438-4.446
				c-1.483-1.881-2.625-4.075-3.429-6.584c-0.804-2.508-1.206-5.167-1.206-7.979v-0.114c0-2.812,0.41-5.48,1.232-8.009
				c0.821-2.526,1.982-4.73,3.482-6.611c1.5-1.881,3.322-3.372,5.465-4.475C47.525,0.552,49.936,0,52.615,0
				c2.679,0,5.081,0.542,7.207,1.625c2.125,1.083,3.938,2.564,5.438,4.445c1.5,1.882,2.652,4.076,3.456,6.584
				s1.206,5.168,1.206,7.979v0.114c0,2.813-0.402,5.482-1.206,8.009c-0.804,2.527-1.965,4.73-3.482,6.612
				c-1.519,1.881-3.349,3.372-5.492,4.474C57.598,40.945,55.187,41.496,52.508,41.496z M52.615,31.692
				c1.036,0,1.982-0.266,2.84-0.798c0.857-0.532,1.581-1.283,2.17-2.252s1.045-2.108,1.366-3.42c0.321-1.311,0.482-2.765,0.482-4.36
				v-0.114c0-1.596-0.17-3.059-0.509-4.389c-0.34-1.33-0.813-2.479-1.42-3.448c-0.608-0.97-1.339-1.729-2.197-2.28
				s-1.804-0.826-2.84-0.826c-1.036,0-1.974,0.266-2.813,0.798c-0.839,0.532-1.563,1.273-2.17,2.223
				c-0.607,0.95-1.071,2.091-1.393,3.42c-0.321,1.331-0.482,2.793-0.482,4.389v0.114c0,1.597,0.169,3.069,0.509,4.418
				c0.339,1.349,0.812,2.508,1.42,3.477c0.607,0.969,1.339,1.72,2.197,2.252S51.579,31.692,52.615,31.692z"/>
			<path fill="#191F28" d="M75.226,32.376l14.038-11.399c1.75-1.444,2.991-2.698,3.724-3.763c0.732-1.063,1.099-2.203,1.099-3.42
				c0-1.254-0.384-2.241-1.152-2.964c-0.769-0.722-1.777-1.083-3.027-1.083c-1.251,0-2.438,0.409-3.563,1.226
				c-1.125,0.817-2.42,2.119-3.885,3.904L75.44,8.664c1-1.368,2.018-2.584,3.054-3.647c1.036-1.063,2.151-1.957,3.349-2.68
				c1.196-0.721,2.518-1.272,3.965-1.652s3.081-0.57,4.903-0.57c2.036,0,3.902,0.313,5.599,0.94
				c1.696,0.627,3.152,1.492,4.367,2.594c1.214,1.103,2.161,2.442,2.84,4.019c0.678,1.577,1.018,3.297,1.018,5.158v0.114
				c0,1.596-0.188,3.021-0.563,4.274s-0.938,2.423-1.688,3.506c-0.75,1.083-1.661,2.119-2.733,3.106
				c-1.071,0.988-2.304,2.015-3.697,3.078l-6.43,4.788h15.485v9.006H75.226V32.376z"/>
			<path fill="#191F28" d="M109.999,32.376l14.038-11.399c1.75-1.444,2.991-2.698,3.724-3.763c0.732-1.063,1.099-2.203,1.099-3.42
				c0-1.254-0.384-2.241-1.152-2.964c-0.769-0.722-1.777-1.083-3.027-1.083c-1.251,0-2.438,0.409-3.563,1.226
				c-1.125,0.817-2.42,2.119-3.885,3.904l-7.019-6.213c1-1.368,2.018-2.584,3.054-3.647c1.036-1.063,2.151-1.957,3.349-2.68
				c1.196-0.721,2.518-1.272,3.965-1.652s3.081-0.57,4.903-0.57c2.036,0,3.902,0.313,5.599,0.94
				c1.696,0.627,3.152,1.492,4.367,2.594c1.214,1.103,2.161,2.442,2.84,4.019c0.678,1.577,1.018,3.297,1.018,5.158v0.114
				c0,1.596-0.188,3.021-0.563,4.274s-0.938,2.423-1.688,3.506c-0.75,1.083-1.661,2.119-2.733,3.106
				c-1.071,0.988-2.304,2.015-3.697,3.078l-6.43,4.788h15.485v9.006h-29.684V32.376z"/>
			<path fill="#191F28" d="M179.449,41.473c-2.6,0-5.043-0.498-7.331-1.493c-2.288-0.996-4.272-2.387-5.953-4.176
				c-1.682-1.788-3.015-3.908-4.003-6.36s-1.482-5.116-1.482-7.992V21.34c0-2.802,0.485-5.429,1.456-7.881
				c0.97-2.452,2.305-4.591,4.003-6.416c1.698-1.825,3.717-3.254,6.057-4.286c2.339-1.032,4.895-1.549,7.668-1.549
				c1.872,0,3.569,0.193,5.095,0.58c1.525,0.388,2.92,0.94,4.186,1.659c1.265,0.72,2.408,1.577,3.432,2.572
				c1.021,0.996,1.932,2.084,2.729,3.264l-7.59,6.25c-1.04-1.401-2.184-2.508-3.432-3.319c-1.248-0.811-2.756-1.217-4.523-1.217
				c-1.282,0-2.452,0.269-3.509,0.803c-1.058,0.534-1.968,1.263-2.729,2.185c-0.763,0.922-1.361,2.01-1.794,3.263
				c-0.434,1.254-0.65,2.582-0.65,3.982v0.11c0,1.438,0.216,2.793,0.65,4.065c0.433,1.272,1.031,2.37,1.794,3.291
				c0.762,0.922,1.672,1.65,2.729,2.185c1.057,0.535,2.227,0.802,3.509,0.802c0.936,0,1.794-0.11,2.574-0.332
				c0.779-0.221,1.49-0.543,2.131-0.968c0.642-0.423,1.248-0.921,1.82-1.493c0.572-0.571,1.135-1.207,1.689-1.908l7.591,5.752
				c-0.867,1.254-1.812,2.416-2.833,3.484c-1.023,1.07-2.184,1.991-3.484,2.766c-1.299,0.774-2.756,1.383-4.367,1.825
				S181.458,41.473,179.449,41.473z"/>
			<path fill="#191F28" d="M200.817,0.323h9.93v40.375h-9.93V0.323z"/>
			<path fill="#191F28" d="M231.854,41.417c-2.254,0-4.324-0.406-6.213-1.217c-1.89-0.811-3.527-1.926-4.913-3.346
				c-1.387-1.419-2.462-3.07-3.224-4.95c-0.763-1.881-1.144-3.89-1.144-6.029v-0.11c0-2.138,0.39-4.156,1.17-6.056
				s1.862-3.559,3.249-4.979c1.387-1.419,3.033-2.544,4.939-3.374c1.906-0.829,3.985-1.244,6.238-1.244s4.324,0.415,6.213,1.244
				c1.889,0.83,3.527,1.945,4.914,3.347c1.385,1.401,2.46,3.042,3.223,4.923c0.762,1.88,1.145,3.891,1.145,6.028v0.11
				c0,2.139-0.391,4.158-1.17,6.057c-0.78,1.899-1.864,3.559-3.25,4.978c-1.387,1.42-3.033,2.544-4.939,3.374
				C236.186,41.002,234.106,41.417,231.854,41.417z M231.958,32.457c0.901,0,1.716-0.174,2.443-0.521
				c0.729-0.348,1.344-0.823,1.846-1.427c0.502-0.603,0.893-1.307,1.17-2.111s0.416-1.646,0.416-2.523v-0.11
				c0-0.914-0.147-1.773-0.441-2.578c-0.295-0.804-0.711-1.509-1.248-2.111c-0.537-0.604-1.17-1.088-1.897-1.454
				c-0.728-0.365-1.526-0.549-2.392-0.549c-0.902,0-1.716,0.174-2.443,0.521c-0.729,0.348-1.344,0.823-1.846,1.427
				c-0.503,0.604-0.893,1.308-1.17,2.112s-0.416,1.646-0.416,2.522v0.109c0,0.914,0.146,1.774,0.441,2.579s0.711,1.508,1.248,2.111
				c0.537,0.603,1.17,1.088,1.898,1.453C230.293,32.274,231.09,32.457,231.958,32.457z"/>
			<path fill="#191F28" d="M262.319,41.362c-3.031,0-5.393-0.977-7.082-2.932c-1.69-1.954-2.535-4.646-2.535-8.075V10.776h9.93
				v16.205c0,1.659,0.359,2.913,1.078,3.761c0.719,0.849,1.677,1.272,2.874,1.272c1.163,0,2.13-0.424,2.899-1.272
				c0.77-0.848,1.155-2.102,1.155-3.761V10.776h9.931v29.922h-9.931v-4.093c-0.891,1.254-2.003,2.36-3.338,3.318
				C265.964,40.882,264.305,41.362,262.319,41.362z"/>
			<path fill="#191F28" d="M298.557,41.362c-1.664,0-3.25-0.36-4.758-1.079s-2.825-1.742-3.951-3.069
				c-1.127-1.327-2.027-2.949-2.703-4.867c-0.676-1.917-1.014-4.074-1.014-6.472v-0.11c0-2.434,0.328-4.618,0.984-6.554
				s1.557-3.576,2.697-4.923c1.141-1.346,2.455-2.378,3.941-3.097c1.486-0.72,3.06-1.079,4.719-1.079c2.109,0,3.838,0.434,5.187,1.3
				c1.349,0.867,2.489,1.872,3.423,3.015V0.323h9.931v40.375h-9.931l0.053-3.982c-0.971,1.254-2.115,2.342-3.432,3.264
				C302.385,40.9,300.67,41.362,298.557,41.362z M301.545,32.567c0.793,0,1.535-0.165,2.226-0.497s1.294-0.802,1.812-1.41
				s0.923-1.328,1.216-2.157c0.294-0.83,0.44-1.742,0.44-2.738v-0.11c0-0.996-0.146-1.898-0.44-2.71
				c-0.293-0.811-0.698-1.521-1.216-2.13s-1.121-1.078-1.812-1.41s-1.433-0.498-2.226-0.498s-1.535,0.166-2.226,0.498
				s-1.294,0.793-1.812,1.383s-0.932,1.3-1.242,2.129c-0.311,0.83-0.465,1.742-0.465,2.738v0.11c0,0.996,0.154,1.908,0.465,2.738
				c0.311,0.829,0.725,1.549,1.242,2.157s1.121,1.078,1.812,1.41S300.752,32.567,301.545,32.567z"/>
			<path fill="#191F28" d="M1.456,53.982h14.037c3.257,0,6.161,0.47,8.708,1.41c2.547,0.94,4.696,2.259,6.447,3.954
				c1.75,1.696,3.084,3.716,4.003,6.057c0.917,2.342,1.377,4.914,1.377,7.716v0.11c0,2.803-0.468,5.393-1.404,7.771
				c-0.936,2.379-2.288,4.435-4.055,6.167c-1.768,1.734-3.943,3.089-6.525,4.065c-2.582,0.978-5.502,1.466-8.76,1.466H1.456V53.982z
				 M15.664,83.186c3.026,0,5.46-0.849,7.305-2.545c1.844-1.695,2.766-4.11,2.766-7.245v-0.11c0-3.098-0.922-5.504-2.766-7.218
				c-1.844-1.715-4.279-2.572-7.305-2.572h-4.123v19.69H15.664z"/>
			<path fill="#191F28" d="M55.889,93.417c-2.219,0-4.246-0.378-6.083-1.134c-1.837-0.755-3.423-1.806-4.757-3.152
				c-1.335-1.346-2.375-2.978-3.12-4.895c-0.746-1.917-1.118-4.038-1.118-6.361v-0.11c0-2.175,0.346-4.212,1.04-6.111
				c0.693-1.898,1.672-3.558,2.938-4.978c1.265-1.419,2.764-2.535,4.497-3.347c1.733-0.811,3.64-1.217,5.719-1.217
				c2.426,0,4.531,0.442,6.317,1.327c1.785,0.886,3.257,2.074,4.419,3.567c1.161,1.494,2.028,3.228,2.6,5.199
				c0.572,1.974,0.858,4.065,0.858,6.277c0,0.332,0,0.684,0,1.052s-0.018,0.737-0.052,1.105h-18.82
				c0.381,1.659,1.1,2.896,2.158,3.706c1.057,0.812,2.365,1.217,3.925,1.217c1.178,0,2.261-0.239,3.249-0.719
				s1.984-1.254,2.99-2.323l5.459,4.812c-1.352,1.845-3.024,3.318-5.017,4.425C61.096,92.864,58.697,93.417,55.889,93.417z
				 M59.944,75.276c-0.174-1.659-0.694-2.978-1.56-3.955c-0.867-0.977-1.976-1.466-3.328-1.466c-1.317,0-2.392,0.489-3.223,1.466
				c-0.832,0.978-1.387,2.296-1.664,3.955H59.944z"/>
			<path fill="#191F28" d="M72.578,62.776h10.398l5.407,17.478l5.407-17.478h10.242L92.802,92.92h-8.994L72.578,62.776z"/>
			<path fill="#191F28" d="M122.437,93.417c-2.219,0-4.246-0.378-6.083-1.134c-1.837-0.755-3.423-1.806-4.757-3.152
				c-1.335-1.346-2.375-2.978-3.12-4.895c-0.746-1.917-1.118-4.038-1.118-6.361v-0.11c0-2.175,0.346-4.212,1.04-6.111
				c0.693-1.898,1.672-3.558,2.938-4.978c1.265-1.419,2.764-2.535,4.497-3.347c1.733-0.811,3.64-1.217,5.719-1.217
				c2.426,0,4.531,0.442,6.317,1.327c1.785,0.886,3.257,2.074,4.419,3.567c1.161,1.494,2.028,3.228,2.6,5.199
				c0.572,1.974,0.858,4.065,0.858,6.277c0,0.332,0,0.684,0,1.052s-0.018,0.737-0.052,1.105h-18.82
				c0.381,1.659,1.1,2.896,2.158,3.706c1.057,0.812,2.365,1.217,3.925,1.217c1.178,0,2.261-0.239,3.249-0.719
				s1.984-1.254,2.99-2.323l5.459,4.812c-1.352,1.845-3.024,3.318-5.017,4.425C127.644,92.864,125.244,93.417,122.437,93.417z
				 M126.492,75.276c-0.174-1.659-0.694-2.978-1.56-3.955c-0.867-0.977-1.976-1.466-3.328-1.466c-1.317,0-2.392,0.489-3.223,1.466
				c-0.832,0.978-1.387,2.296-1.664,3.955H126.492z"/>
			<path fill="#191F28" d="M141.465,52.323h9.93v40.375h-9.93V52.323z"/>
			<path fill="#191F28" d="M172.502,93.417c-2.253,0-4.324-0.406-6.213-1.217c-1.89-0.811-3.527-1.926-4.913-3.346
				c-1.387-1.419-2.461-3.07-3.224-4.95c-0.763-1.881-1.144-3.89-1.144-6.029v-0.11c0-2.138,0.39-4.156,1.17-6.056
				c0.78-1.899,1.862-3.559,3.249-4.979c1.386-1.419,3.033-2.544,4.939-3.374c1.906-0.829,3.985-1.244,6.239-1.244
				c2.252,0,4.323,0.415,6.213,1.244c1.888,0.83,3.527,1.945,4.914,3.347c1.385,1.401,2.46,3.042,3.223,4.923
				c0.762,1.88,1.145,3.891,1.145,6.028v0.11c0,2.139-0.391,4.158-1.17,6.057c-0.78,1.899-1.864,3.559-3.25,4.978
				c-1.387,1.42-3.033,2.544-4.939,3.374C176.834,93.002,174.755,93.417,172.502,93.417z M172.606,84.457
				c0.901,0,1.715-0.174,2.443-0.521c0.728-0.348,1.343-0.823,1.846-1.427c0.502-0.603,0.892-1.307,1.17-2.111
				c0.277-0.805,0.416-1.646,0.416-2.523v-0.11c0-0.914-0.147-1.773-0.442-2.578c-0.295-0.804-0.71-1.509-1.248-2.111
				c-0.538-0.604-1.17-1.088-1.897-1.454c-0.728-0.365-1.526-0.549-2.392-0.549c-0.902,0-1.716,0.174-2.444,0.521
				c-0.728,0.348-1.343,0.823-1.846,1.427s-0.893,1.308-1.169,2.112c-0.278,0.805-0.416,1.646-0.416,2.522v0.109
				c0,0.914,0.147,1.774,0.442,2.579c0.294,0.805,0.71,1.508,1.248,2.111c0.537,0.603,1.17,1.088,1.898,1.453
				C170.942,84.274,171.739,84.457,172.606,84.457z"/>
			<path fill="#191F28" d="M193.557,62.776h9.931v3.982c0.484-0.627,1.003-1.217,1.556-1.771c0.553-0.553,1.168-1.041,1.842-1.466
				c0.674-0.423,1.435-0.765,2.281-1.022c0.848-0.258,1.789-0.388,2.826-0.388c1.659,0,3.241,0.359,4.746,1.079
				c1.504,0.719,2.826,1.742,3.967,3.069s2.049,2.95,2.723,4.867c0.675,1.918,1.012,4.074,1.012,6.471v0.111
				c0,2.434-0.337,4.618-1.012,6.554c-0.674,1.936-1.573,3.577-2.697,4.923c-1.123,1.346-2.438,2.378-3.941,3.097
				s-3.086,1.079-4.744,1.079c-1.072,0-2.031-0.12-2.879-0.36c-0.847-0.24-1.616-0.553-2.307-0.939
				c-0.693-0.388-1.314-0.848-1.868-1.383c-0.554-0.534-1.055-1.079-1.504-1.632v12.5h-9.931V62.776z M208.973,84.567
				c1.621,0,2.984-0.626,4.088-1.88c1.104-1.253,1.656-2.895,1.656-4.923v-0.11c0-1.991-0.552-3.613-1.656-4.867
				c-1.104-1.253-2.467-1.881-4.088-1.881c-0.794,0-1.535,0.166-2.227,0.498c-0.689,0.332-1.293,0.802-1.811,1.41
				s-0.924,1.319-1.217,2.13c-0.293,0.812-0.439,1.714-0.439,2.71v0.11c0,0.996,0.146,1.908,0.439,2.738
				c0.293,0.829,0.699,1.549,1.217,2.157s1.121,1.078,1.811,1.41C207.438,84.402,208.179,84.567,208.973,84.567z"/>
			<path fill="#191F28" d="M243.936,93.417c-2.219,0-4.246-0.378-6.083-1.134c-1.837-0.755-3.423-1.806-4.757-3.152
				c-1.335-1.346-2.375-2.978-3.119-4.895c-0.746-1.917-1.118-4.038-1.118-6.361v-0.11c0-2.175,0.347-4.212,1.04-6.111
				c0.692-1.898,1.672-3.558,2.938-4.978c1.265-1.419,2.764-2.535,4.496-3.347c1.733-0.811,3.641-1.217,5.72-1.217
				c2.426,0,4.531,0.442,6.317,1.327c1.784,0.886,3.257,2.074,4.418,3.567c1.162,1.494,2.028,3.228,2.6,5.199
				c0.572,1.974,0.858,4.065,0.858,6.277c0,0.332,0,0.684,0,1.052s-0.019,0.737-0.052,1.105h-18.82
				c0.381,1.659,1.1,2.896,2.157,3.706c1.057,0.812,2.365,1.217,3.925,1.217c1.178,0,2.262-0.239,3.25-0.719
				c0.987-0.479,1.983-1.254,2.989-2.323l5.459,4.812c-1.353,1.845-3.024,3.318-5.017,4.425
				C249.143,92.864,246.744,93.417,243.936,93.417z M247.991,75.276c-0.174-1.659-0.693-2.978-1.559-3.955
				c-0.867-0.977-1.977-1.466-3.328-1.466c-1.317,0-2.392,0.489-3.223,1.466c-0.832,0.978-1.387,2.296-1.664,3.955H247.991z"/>
			<path fill="#191F28" d="M262.756,62.776h9.93v6.028c0.797-2.027,1.889-3.65,3.275-4.867s3.258-1.77,5.615-1.659V73.34h-0.832
				c-2.6,0-4.592,0.812-5.979,2.434c-1.387,1.623-2.08,4.167-2.08,7.633v9.292h-9.93V62.776z"/>
			<path fill="#191F28" d="M287.904,69.967c1.769-0.185,3.094-0.72,3.978-1.604s1.291-2.083,1.222-3.595H289.1V53.982h10.294v8.794
				c0,2.065-0.252,3.798-0.754,5.199c-0.503,1.401-1.214,2.535-2.132,3.401s-2.037,1.512-3.354,1.936
				c-1.317,0.425-2.79,0.655-4.419,0.691L287.904,69.967z"/>
			<path fill="#191F28" d="M316.551,93.362c-2.393,0-4.715-0.36-6.967-1.079c-2.254-0.719-4.367-1.834-6.344-3.346l3.691-6.36
				c1.629,1.143,3.283,2,4.965,2.571c1.682,0.572,3.25,0.857,4.705,0.857c1.664,0,2.496-0.534,2.496-1.604v-0.111
				c0-0.589-0.382-1.051-1.145-1.383c-0.762-0.331-1.889-0.719-3.379-1.161c-1.387-0.368-2.686-0.802-3.898-1.3
				c-1.215-0.498-2.271-1.106-3.172-1.825c-0.902-0.719-1.611-1.595-2.132-2.627c-0.52-1.032-0.78-2.304-0.78-3.816v-0.11
				c0-1.585,0.287-2.996,0.858-4.231s1.36-2.268,2.366-3.098c1.004-0.829,2.191-1.465,3.561-1.908
				c1.369-0.442,2.867-0.663,4.497-0.663c2.079,0,4.124,0.304,6.136,0.912c2.01,0.608,3.828,1.466,5.459,2.572l-3.38,6.637
				c-1.456-0.848-2.93-1.521-4.419-2.019c-1.491-0.498-2.791-0.747-3.899-0.747c-0.763,0-1.335,0.139-1.716,0.415
				c-0.382,0.276-0.572,0.618-0.572,1.023v0.11c0,0.591,0.391,1.061,1.17,1.41c0.779,0.352,1.915,0.767,3.405,1.245
				c1.386,0.406,2.687,0.857,3.899,1.354c1.213,0.498,2.27,1.106,3.172,1.825c0.9,0.72,1.611,1.596,2.131,2.628
				s0.78,2.268,0.78,3.705v0.11c0,1.66-0.278,3.107-0.832,4.342c-0.555,1.236-1.335,2.277-2.339,3.125
				c-1.006,0.849-2.219,1.485-3.641,1.908C319.808,93.149,318.249,93.362,316.551,93.362z"/>
			<path fill="#191F28" d="M349.668,53.982h14.037c3.257,0,6.16,0.47,8.707,1.41c2.549,0.94,4.697,2.259,6.447,3.954
				c1.75,1.696,3.084,3.716,4.004,6.057c0.918,2.342,1.377,4.914,1.377,7.716v0.11c0,2.803-0.467,5.393-1.402,7.771
				c-0.938,2.379-2.289,4.435-4.057,6.167c-1.768,1.734-3.943,3.089-6.523,4.065c-2.584,0.978-5.504,1.466-8.762,1.466h-13.828
				V53.982z M363.876,83.186c3.026,0,5.46-0.849,7.306-2.545c1.844-1.695,2.766-4.11,2.766-7.245v-0.11
				c0-3.098-0.922-5.504-2.766-7.218c-1.846-1.715-4.279-2.572-7.306-2.572h-4.122v19.69H363.876z"/>
			<path fill="#191F28" d="M398.227,93.362c-1.352,0-2.6-0.203-3.744-0.608c-1.143-0.405-2.141-0.996-2.988-1.771
				c-0.85-0.774-1.518-1.732-2.002-2.876c-0.486-1.143-0.729-2.47-0.729-3.982v-0.11c0-1.549,0.268-2.912,0.807-4.093
				c0.537-1.18,1.281-2.157,2.234-2.932s2.105-1.363,3.457-1.77c1.354-0.405,2.861-0.608,4.523-0.608c1.318,0,2.574,0.12,3.77,0.359
				c1.195,0.24,2.191,0.508,2.99,0.802v-0.497c0-1.549-0.461-2.747-1.379-3.596c-0.918-0.848-2.33-1.271-4.236-1.271
				c-1.49,0-2.842,0.147-4.055,0.442c-1.215,0.295-2.443,0.7-3.691,1.217l-2.027-7.412c1.594-0.699,3.283-1.262,5.068-1.687
				c1.785-0.424,3.891-0.636,6.316-0.636c2.529,0,4.67,0.313,6.422,0.94c1.748,0.627,3.18,1.53,4.289,2.71
				c1.074,1.105,1.846,2.442,2.313,4.01c0.469,1.567,0.703,3.401,0.703,5.503v17.201h-9.775v-3.098
				c-0.971,1.144-2.123,2.057-3.457,2.738S400.098,93.362,398.227,93.362z M401.762,86.78c1.455,0,2.633-0.442,3.535-1.327
				c0.9-0.886,1.352-2.083,1.352-3.596v-1.383c-0.486-0.221-1.066-0.405-1.742-0.553c-0.676-0.146-1.377-0.222-2.105-0.222
				c-1.455,0-2.572,0.342-3.354,1.023c-0.779,0.683-1.17,1.576-1.17,2.683v0.11c0,1.033,0.33,1.835,0.988,2.406
				C399.924,86.495,400.756,86.78,401.762,86.78z"/>
			<path fill="#191F28" d="M430.928,101.714c-1.768,0-3.389-0.239-4.861-0.714c-1.473-0.478-2.869-1.1-4.186-1.868l3.068-7.318
				c0.797,0.517,1.576,0.912,2.34,1.188c0.762,0.277,1.42,0.415,1.975,0.415c0.484,0,0.91-0.084,1.273-0.249
				c0.365-0.166,0.703-0.489,1.014-0.97L420.53,62.776h10.346l5.615,18.03l5.303-18.03h10.139l-10.295,29.203
				c-0.623,1.732-1.266,3.216-1.924,4.452c-0.658,1.235-1.402,2.24-2.234,3.015s-1.785,1.345-2.859,1.714
				C433.545,101.528,432.313,101.714,430.928,101.714z"/>
		</g>
	</g>
</g>
</svg>
