<?xml version="1.0" encoding="utf-8"?>
<!-- Generator: Adobe Illustrator 16.0.0, SVG Export Plug-In . SVG Version: 6.00 Build 0)  -->
<!DOCTYPE svg PUBLIC "-//W3C//DTD SVG 1.1//EN" "http://www.w3.org/Graphics/SVG/1.1/DTD/svg11.dtd">
<svg version="1.1" id="Layer_1" xmlns="http://www.w3.org/2000/svg" xmlns:xlink="http://www.w3.org/1999/xlink" x="0px" y="0px"
	 width="518.51px" height="164.286px" viewBox="0 0 518.51 164.286" enable-background="new 0 0 518.51 164.286"
	 xml:space="preserve">
<g>
	<g>
		<path d="M1.765,127.179h1.512l8.987,27.992l8.579-28.078h1.062l8.62,28.121l8.987-28.035h1.43l-9.886,30.314h-1.144l-8.579-27.648
			l-8.538,27.648H11.65L1.765,127.179z"/>
		<path d="M55.424,157.794c-1.393,0-2.709-0.266-3.952-0.795c-1.242-0.531-2.327-1.291-3.254-2.279
			c-0.928-0.99-1.666-2.186-2.211-3.592c-0.546-1.402-0.819-2.967-0.819-4.686v-0.086c0-1.576,0.245-3.053,0.735-4.43
			c0.49-1.375,1.178-2.572,2.063-3.59c0.885-1.018,1.926-1.813,3.125-2.387c1.198-0.574,2.505-0.861,3.922-0.861
			c1.552,0,2.914,0.324,4.085,0.969c1.17,0.645,2.158,1.498,2.961,2.559c0.803,1.061,1.402,2.271,1.797,3.633
			c0.395,1.361,0.592,2.773,0.592,4.236v0.473H46.577c0.055,1.455,0.335,2.775,0.842,3.959c0.506,1.186,1.156,2.184,1.95,2.996
			c0.793,0.814,1.717,1.443,2.771,1.885s2.155,0.662,3.306,0.662c1.615,0,3.052-0.387,4.311-1.16
			c1.258-0.773,2.299-1.721,3.12-2.838l0.98,0.816c-0.954,1.291-2.127,2.365-3.52,3.225
			C58.945,157.364,57.307,157.794,55.424,157.794z M63.081,145.71c-0.055-1.168-0.268-2.311-0.637-3.424
			c-0.369-1.111-0.89-2.104-1.56-2.975c-0.671-0.869-1.506-1.568-2.505-2.096c-0.999-0.529-2.141-0.793-3.427-0.793
			c-1.177,0-2.266,0.236-3.264,0.707c-0.999,0.471-1.868,1.119-2.607,1.947s-1.327,1.813-1.765,2.953
			c-0.438,1.141-0.685,2.369-0.739,3.68H63.081z"/>
		<path d="M79.257,157.794c-1.389,0-2.703-0.279-3.942-0.838c-1.24-0.561-2.315-1.34-3.227-2.344
			c-0.913-1.004-1.641-2.193-2.186-3.57c-0.545-1.375-0.817-2.895-0.817-4.557v-0.086c0-1.635,0.272-3.146,0.817-4.537
			c0.544-1.391,1.272-2.586,2.186-3.59c0.912-1.004,1.987-1.785,3.227-2.344c1.239-0.559,2.553-0.84,3.942-0.84
			c1.144,0,2.192,0.166,3.146,0.496c0.953,0.33,1.818,0.789,2.594,1.375c0.776,0.588,1.443,1.27,2.001,2.043
			c0.558,0.773,1.014,1.605,1.369,2.494v-15.609h1.307v31.391h-1.307v-5.977c-0.354,0.916-0.817,1.77-1.389,2.557
			c-0.572,0.789-1.246,1.471-2.022,2.043c-0.776,0.574-1.641,1.033-2.594,1.377C81.408,157.622,80.373,157.794,79.257,157.794z
			 M79.379,156.46c1.252,0,2.431-0.258,3.534-0.773s2.063-1.225,2.88-2.129c0.817-0.902,1.463-1.955,1.94-3.16
			c0.476-1.203,0.715-2.508,0.715-3.912v-0.086c0-1.404-0.239-2.709-0.715-3.914c-0.477-1.203-1.124-2.258-1.94-3.16
			s-1.777-1.613-2.88-2.129s-2.281-0.773-3.534-0.773c-1.307,0-2.506,0.244-3.595,0.73c-1.089,0.488-2.029,1.176-2.819,2.064
			c-0.79,0.889-1.403,1.936-1.838,3.139c-0.436,1.205-0.654,2.537-0.654,4v0.086c0,1.434,0.225,2.76,0.674,3.977
			c0.449,1.219,1.068,2.279,1.858,3.182c0.79,0.904,1.729,1.607,2.819,2.107C76.915,156.21,78.099,156.46,79.379,156.46z"/>
		<path d="M97.271,135.606h1.308v5.16c0.245-0.631,0.585-1.283,1.021-1.957c0.436-0.674,0.98-1.291,1.634-1.85
			c0.653-0.559,1.416-1.01,2.288-1.354c0.871-0.344,1.865-0.518,2.982-0.518c1.361,0,2.566,0.23,3.615,0.689
			c1.048,0.459,1.933,1.111,2.655,1.955c0.721,0.848,1.272,1.85,1.654,3.012c0.381,1.16,0.572,2.443,0.572,3.848v12.686h-1.307
			v-12.445c0-2.516-0.627-4.547-1.879-6.094c-1.253-1.543-3.078-2.316-5.474-2.316c-1.089,0-2.104,0.223-3.043,0.666
			c-0.939,0.443-1.756,1.051-2.451,1.824c-0.694,0.771-1.246,1.688-1.654,2.744c-0.409,1.061-0.613,2.203-0.613,3.434v12.188h-1.308
			V135.606z"/>
		<path d="M130.996,157.794c-1.393,0-2.709-0.266-3.952-0.795c-1.242-0.531-2.327-1.291-3.254-2.279
			c-0.928-0.99-1.666-2.186-2.211-3.592c-0.546-1.402-0.819-2.967-0.819-4.686v-0.086c0-1.576,0.245-3.053,0.735-4.43
			c0.49-1.375,1.178-2.572,2.063-3.59c0.885-1.018,1.926-1.813,3.125-2.387c1.198-0.574,2.505-0.861,3.922-0.861
			c1.552,0,2.914,0.324,4.085,0.969c1.17,0.645,2.158,1.498,2.961,2.559c0.803,1.061,1.402,2.271,1.797,3.633
			c0.395,1.361,0.592,2.773,0.592,4.236v0.473h-17.892c0.055,1.455,0.335,2.775,0.842,3.959c0.506,1.186,1.156,2.184,1.95,2.996
			c0.793,0.814,1.717,1.443,2.771,1.885s2.155,0.662,3.306,0.662c1.615,0,3.052-0.387,4.311-1.16
			c1.258-0.773,2.299-1.721,3.12-2.838l0.98,0.816c-0.954,1.291-2.127,2.365-3.52,3.225
			C134.516,157.364,132.878,157.794,130.996,157.794z M138.652,145.71c-0.055-1.168-0.268-2.311-0.637-3.424
			c-0.369-1.111-0.89-2.104-1.56-2.975c-0.671-0.869-1.506-1.568-2.505-2.096c-0.999-0.529-2.141-0.793-3.427-0.793
			c-1.177,0-2.266,0.236-3.264,0.707c-0.999,0.471-1.868,1.119-2.607,1.947s-1.327,1.813-1.765,2.953
			c-0.438,1.141-0.685,2.369-0.739,3.68H138.652z"/>
		<path d="M152.459,157.665c-1.471,0-2.948-0.287-4.432-0.859c-1.485-0.574-2.798-1.361-3.942-2.365l0.776-1.076
			c1.14,0.947,2.369,1.678,3.686,2.193c1.316,0.516,2.641,0.773,3.971,0.773c0.814,0,1.581-0.105,2.301-0.32
			c0.719-0.215,1.343-0.523,1.873-0.924c0.529-0.4,0.943-0.879,1.242-1.438c0.299-0.557,0.448-1.164,0.448-1.822v-0.086
			c0-0.773-0.177-1.418-0.53-1.932c-0.353-0.516-0.822-0.951-1.405-1.309c-0.584-0.357-1.25-0.666-1.996-0.924
			c-0.747-0.256-1.513-0.5-2.3-0.729c-0.951-0.287-1.86-0.586-2.729-0.9c-0.87-0.314-1.63-0.688-2.281-1.117
			c-0.652-0.428-1.167-0.951-1.548-1.566s-0.57-1.381-0.57-2.295v-0.086c0-0.801,0.169-1.545,0.508-2.232
			c0.34-0.686,0.814-1.287,1.425-1.803c0.611-0.514,1.344-0.914,2.2-1.201c0.855-0.285,1.812-0.428,2.872-0.428
			c1.194,0,2.423,0.215,3.686,0.643c1.263,0.432,2.438,1.033,3.525,1.807l-0.735,1.162c-0.974-0.746-2.029-1.313-3.166-1.699
			s-2.245-0.58-3.327-0.58c-1.704,0-3.063,0.408-4.078,1.223c-1.015,0.816-1.521,1.824-1.521,3.025v0.086
			c0,0.688,0.169,1.268,0.509,1.738c0.339,0.473,0.794,0.887,1.365,1.244c0.57,0.357,1.228,0.666,1.975,0.924
			c0.747,0.258,1.541,0.514,2.383,0.771c0.923,0.258,1.819,0.545,2.688,0.859c0.869,0.314,1.629,0.701,2.28,1.158
			c0.652,0.457,1.174,1.016,1.568,1.674c0.393,0.658,0.59,1.459,0.59,2.402v0.086c0,0.887-0.191,1.695-0.572,2.424
			c-0.382,0.73-0.899,1.354-1.552,1.867c-0.654,0.516-1.423,0.916-2.308,1.201C154.454,157.522,153.494,157.665,152.459,157.665z"/>
		<path d="M174.967,157.794c-1.389,0-2.703-0.279-3.942-0.838c-1.24-0.561-2.315-1.34-3.227-2.344
			c-0.913-1.004-1.641-2.193-2.186-3.57c-0.545-1.375-0.817-2.895-0.817-4.557v-0.086c0-1.635,0.272-3.146,0.817-4.537
			c0.544-1.391,1.272-2.586,2.186-3.59c0.912-1.004,1.987-1.785,3.227-2.344c1.239-0.559,2.553-0.84,3.942-0.84
			c1.144,0,2.192,0.166,3.146,0.496c0.953,0.33,1.818,0.789,2.594,1.375c0.776,0.588,1.443,1.27,2.001,2.043
			c0.558,0.773,1.014,1.605,1.369,2.494v-15.609h1.307v31.391h-1.307v-5.977c-0.354,0.916-0.817,1.77-1.389,2.557
			c-0.572,0.789-1.246,1.471-2.022,2.043c-0.776,0.574-1.641,1.033-2.594,1.377C177.118,157.622,176.083,157.794,174.967,157.794z
			 M175.09,156.46c1.252,0,2.431-0.258,3.534-0.773s2.063-1.225,2.88-2.129c0.817-0.902,1.463-1.955,1.94-3.16
			c0.476-1.203,0.715-2.508,0.715-3.912v-0.086c0-1.404-0.239-2.709-0.715-3.914c-0.477-1.203-1.124-2.258-1.94-3.16
			s-1.777-1.613-2.88-2.129s-2.281-0.773-3.534-0.773c-1.307,0-2.506,0.244-3.595,0.73c-1.089,0.488-2.029,1.176-2.819,2.064
			c-0.79,0.889-1.403,1.936-1.838,3.139c-0.436,1.205-0.654,2.537-0.654,4v0.086c0,1.434,0.225,2.76,0.674,3.977
			c0.449,1.219,1.068,2.279,1.858,3.182c0.79,0.904,1.729,1.607,2.819,2.107C172.625,156.21,173.81,156.46,175.09,156.46z"/>
		<path d="M199.068,157.794c-0.98,0-1.94-0.137-2.88-0.41s-1.777-0.689-2.512-1.25s-1.321-1.258-1.757-2.092
			c-0.436-0.834-0.653-1.797-0.653-2.891v-0.086c0-1.121,0.231-2.121,0.694-2.998c0.463-0.877,1.096-1.611,1.899-2.201
			c0.803-0.588,1.763-1.035,2.88-1.336c1.117-0.303,2.329-0.453,3.636-0.453c1.443,0,2.778,0.119,4.003,0.355
			s2.342,0.533,3.35,0.889v-1.455c0-2.451-0.647-4.277-1.94-5.475c-1.294-1.197-3.098-1.797-5.413-1.797
			c-1.28,0-2.458,0.166-3.534,0.494c-1.076,0.33-2.131,0.768-3.166,1.313l-0.49-1.205c1.144-0.578,2.294-1.045,3.452-1.4
			c1.157-0.355,2.431-0.533,3.819-0.533c2.86,0,5.038,0.787,6.536,2.363c0.654,0.717,1.157,1.586,1.512,2.602
			c0.354,1.02,0.531,2.201,0.531,3.549v13.502h-1.307v-4.516c-0.272,0.602-0.654,1.197-1.144,1.785
			c-0.49,0.588-1.097,1.125-1.818,1.611c-0.722,0.488-1.56,0.883-2.513,1.184C201.301,157.644,200.239,157.794,199.068,157.794z
			 M199.15,156.46c1.252,0,2.403-0.191,3.452-0.576c1.048-0.387,1.954-0.906,2.716-1.564c0.762-0.656,1.361-1.42,1.797-2.291
			c0.436-0.871,0.654-1.793,0.654-2.764v-2.656c-1.008-0.342-2.111-0.627-3.309-0.855c-1.199-0.229-2.573-0.344-4.126-0.344
			c-1.144,0-2.185,0.123-3.125,0.365c-0.939,0.242-1.743,0.6-2.41,1.07c-0.667,0.473-1.191,1.057-1.573,1.756
			s-0.572,1.492-0.572,2.377v0.086c0,0.885,0.177,1.664,0.531,2.334c0.354,0.672,0.83,1.236,1.43,1.693
			c0.599,0.457,1.287,0.799,2.063,1.027C197.455,156.347,198.278,156.46,199.15,156.46z"/>
		<path d="M218.349,164.286c-0.763,0-1.478-0.104-2.145-0.311c-0.668-0.207-1.273-0.475-1.818-0.799l0.531-1.168
			c0.49,0.285,1.028,0.516,1.614,0.688c0.585,0.172,1.205,0.258,1.858,0.258c0.572,0,1.096-0.086,1.573-0.258
			s0.926-0.473,1.348-0.902c0.422-0.43,0.851-1.016,1.287-1.76c0.435-0.744,0.898-1.689,1.389-2.834l-9.886-21.594h1.471
			l9.069,20.166l8.292-20.166h1.389l-9.273,22.23c-0.545,1.289-1.069,2.35-1.573,3.182s-1.021,1.49-1.552,1.979
			c-0.531,0.486-1.089,0.824-1.675,1.01C219.663,164.194,219.029,164.286,218.349,164.286z"/>
		<path d="M238.243,160.46c0.626-0.316,1.055-0.725,1.287-1.227c0.231-0.5,0.32-1.154,0.265-1.955h-0.898v-2.795h1.961v2.451
			c0,1.289-0.178,2.242-0.531,2.859c-0.354,0.615-0.926,1.082-1.716,1.396L238.243,160.46z"/>
		<path d="M272.76,157.794c-2.179,0-4.14-0.424-5.882-1.27c-1.743-0.844-3.241-1.984-4.494-3.418
			c-1.253-1.434-2.213-3.08-2.88-4.945c-0.667-1.863-1.001-3.826-1.001-5.891v-0.086c0-2.064,0.34-4.027,1.021-5.891
			c0.68-1.863,1.64-3.512,2.88-4.945c1.239-1.434,2.737-2.572,4.494-3.418c1.756-0.846,3.724-1.27,5.902-1.27
			c2.151,0,4.105,0.424,5.862,1.27s3.261,1.984,4.514,3.418s2.212,3.082,2.88,4.945c0.667,1.863,1.001,3.826,1.001,5.891
			c0.054,0,0.054,0.029,0,0.086c0,2.064-0.341,4.027-1.021,5.891c-0.682,1.865-1.642,3.512-2.881,4.945s-2.744,2.574-4.514,3.418
			C276.872,157.37,274.911,157.794,272.76,157.794z M272.842,156.46c1.912,0,3.654-0.379,5.225-1.139
			c1.571-0.76,2.917-1.785,4.037-3.074c1.12-1.291,1.994-2.795,2.623-4.516c0.627-1.719,0.942-3.525,0.942-5.418v-0.086
			c0-1.893-0.315-3.697-0.942-5.418c-0.629-1.721-1.51-3.232-2.644-4.537c-1.134-1.303-2.493-2.342-4.077-3.117
			c-1.585-0.773-3.334-1.16-5.246-1.16s-3.661,0.381-5.245,1.139c-1.584,0.76-2.937,1.785-4.058,3.074
			c-1.12,1.291-1.995,2.795-2.623,4.516s-0.942,3.525-0.942,5.418v0.086c0,1.893,0.314,3.699,0.942,5.418
			c0.628,1.721,1.516,3.232,2.664,4.537s2.514,2.344,4.099,3.117C269.181,156.073,270.93,156.46,272.842,156.46z"/>
		<path d="M302.907,157.794c-1.471,0-2.847-0.301-4.126-0.902c-1.28-0.604-2.39-1.42-3.329-2.451
			c-0.939-1.033-1.682-2.229-2.226-3.592c-0.546-1.361-0.818-2.816-0.818-4.363v-0.086c0-1.52,0.272-2.967,0.818-4.344
			c0.544-1.375,1.286-2.58,2.226-3.611c0.939-1.033,2.049-1.85,3.329-2.451c1.279-0.602,2.669-0.904,4.167-0.904
			c0.952,0,1.824,0.113,2.614,0.334c0.789,0.223,1.512,0.516,2.165,0.881c0.653,0.367,1.267,0.793,1.839,1.279
			c0.571,0.488,1.103,1.004,1.593,1.549l-0.94,0.988c-0.898-1.002-1.934-1.869-3.104-2.602c-1.172-0.73-2.574-1.096-4.208-1.096
			c-1.308,0-2.513,0.264-3.615,0.793c-1.103,0.527-2.063,1.242-2.88,2.141s-1.457,1.947-1.92,3.146s-0.694,2.484-0.694,3.854v0.086
			c0,1.369,0.237,2.662,0.715,3.875c0.476,1.213,1.13,2.275,1.961,3.189c0.83,0.914,1.804,1.633,2.921,2.162
			c1.116,0.527,2.314,0.791,3.594,0.791c1.635,0,3.051-0.379,4.249-1.139s2.247-1.67,3.146-2.73l0.939,0.859
			c-1.008,1.234-2.18,2.266-3.514,3.096C306.475,157.378,304.841,157.794,302.907,157.794z"/>
		<path d="M323.495,157.665c-1.661,0-2.989-0.494-3.983-1.484c-0.994-0.988-1.49-2.473-1.49-4.449v-14.879h-3.146v-1.246h3.146
			v-7.268h1.307v7.268h7.476v1.246h-7.476v14.717c0,1.602,0.374,2.797,1.123,3.582c0.749,0.787,1.805,1.18,3.166,1.18
			c1.008,0,2.043-0.242,3.105-0.73v1.334C325.769,157.421,324.693,157.665,323.495,157.665z"/>
		<path d="M341.795,157.794c-1.579,0-3.022-0.301-4.33-0.902c-1.307-0.604-2.43-1.42-3.369-2.451
			c-0.939-1.033-1.669-2.229-2.186-3.592c-0.518-1.361-0.776-2.801-0.776-4.32v-0.086c0-1.52,0.259-2.967,0.776-4.344
			c0.517-1.375,1.246-2.58,2.186-3.611c0.939-1.033,2.068-1.855,3.391-2.473c1.32-0.617,2.77-0.926,4.35-0.926
			s3.016,0.303,4.311,0.904c1.293,0.602,2.41,1.418,3.35,2.451c0.939,1.031,1.668,2.229,2.186,3.59
			c0.517,1.361,0.775,2.803,0.775,4.322v0.086c0,1.52-0.259,2.967-0.775,4.342c-0.518,1.377-1.246,2.58-2.186,3.613
			c-0.939,1.031-2.063,1.855-3.371,2.473C344.818,157.485,343.375,157.794,341.795,157.794z M341.816,156.46
			c1.364,0,2.613-0.264,3.746-0.791c1.132-0.529,2.107-1.248,2.927-2.162c0.818-0.914,1.452-1.969,1.903-3.168
			s0.676-2.484,0.676-3.854v-0.086c0-1.371-0.232-2.654-0.696-3.854s-1.112-2.256-1.944-3.168c-0.832-0.914-1.821-1.635-2.968-2.162
			c-1.146-0.529-2.389-0.793-3.726-0.793c-1.365,0-2.613,0.264-3.746,0.793c-1.133,0.527-2.102,1.248-2.906,2.162
			c-0.807,0.912-1.434,1.969-1.885,3.168c-0.45,1.199-0.675,2.482-0.675,3.854v0.086c0,1.369,0.231,2.654,0.696,3.854
			c0.463,1.199,1.111,2.254,1.944,3.168s1.814,1.633,2.948,2.162C339.243,156.196,340.479,156.46,341.816,156.46z"/>
		<path d="M369.001,157.794c-1.144,0-2.192-0.166-3.146-0.494c-0.953-0.33-1.818-0.789-2.594-1.377
			c-0.776-0.586-1.443-1.268-2.002-2.043c-0.559-0.773-1.015-1.604-1.368-2.492v5.891h-1.308v-31.391h1.308v15.695
			c0.354-0.889,0.817-1.734,1.389-2.537s1.246-1.49,2.022-2.064c0.775-0.572,1.641-1.031,2.594-1.375s1.987-0.518,3.104-0.518
			c1.389,0,2.702,0.281,3.942,0.84c1.238,0.559,2.314,1.34,3.227,2.344s1.641,2.191,2.186,3.568s0.816,2.896,0.816,4.559v0.086
			c0,1.633-0.271,3.146-0.816,4.535c-0.545,1.393-1.273,2.588-2.186,3.592s-1.988,1.783-3.227,2.344
			C371.703,157.515,370.39,157.794,369.001,157.794z M368.879,156.46c1.307,0,2.505-0.242,3.594-0.73
			c1.09-0.486,2.029-1.174,2.819-2.064c0.79-0.887,1.402-1.934,1.838-3.139c0.436-1.203,0.653-2.537,0.653-3.998v-0.086
			c0-1.434-0.225-2.76-0.674-3.979c-0.449-1.217-1.068-2.279-1.858-3.182s-1.729-1.605-2.819-2.107
			c-1.089-0.5-2.273-0.752-3.553-0.752c-1.281,0-2.473,0.258-3.574,0.773c-1.104,0.516-2.063,1.227-2.881,2.129
			c-0.816,0.902-1.457,1.957-1.92,3.16c-0.463,1.205-0.694,2.51-0.694,3.914v0.086c0,1.404,0.238,2.709,0.715,3.912
			c0.477,1.205,1.124,2.258,1.94,3.16c0.816,0.904,1.777,1.613,2.88,2.129S367.625,156.46,368.879,156.46z"/>
		<path d="M394.229,157.794c-1.393,0-2.709-0.266-3.951-0.795c-1.242-0.531-2.326-1.291-3.254-2.279
			c-0.929-0.99-1.666-2.186-2.212-3.592c-0.546-1.402-0.819-2.967-0.819-4.686v-0.086c0-1.576,0.246-3.053,0.736-4.43
			c0.49-1.375,1.178-2.572,2.063-3.59s1.926-1.813,3.125-2.387c1.198-0.574,2.506-0.861,3.922-0.861
			c1.553,0,2.914,0.324,4.085,0.969s2.157,1.498,2.962,2.559c0.803,1.061,1.402,2.271,1.797,3.633s0.592,2.773,0.592,4.236v0.473
			h-17.892c0.055,1.455,0.335,2.775,0.842,3.959c0.507,1.186,1.155,2.184,1.95,2.996c0.793,0.814,1.717,1.443,2.771,1.885
			s2.155,0.662,3.306,0.662c1.615,0,3.052-0.387,4.311-1.16c1.258-0.773,2.299-1.721,3.12-2.838l0.98,0.816
			c-0.954,1.291-2.128,2.365-3.52,3.225C397.75,157.364,396.111,157.794,394.229,157.794z M401.885,145.71
			c-0.055-1.168-0.268-2.311-0.637-3.424c-0.369-1.111-0.889-2.104-1.559-2.975c-0.672-0.869-1.506-1.568-2.506-2.096
			c-0.998-0.529-2.141-0.793-3.427-0.793c-1.177,0-2.266,0.236-3.265,0.707c-0.998,0.471-1.867,1.119-2.606,1.947
			s-1.327,1.813-1.765,2.953s-0.685,2.369-0.739,3.68H401.885z"/>
		<path d="M409.237,135.606h1.308v6.621c0.299-0.916,0.721-1.807,1.267-2.666c0.544-0.859,1.185-1.619,1.92-2.279
			c0.735-0.658,1.572-1.182,2.512-1.568s1.954-0.566,3.044-0.537v1.418h-0.205c-1.253,0-2.403,0.295-3.451,0.881
			c-1.049,0.588-1.947,1.363-2.696,2.322c-0.749,0.961-1.335,2.072-1.757,3.332c-0.423,1.264-0.633,2.553-0.633,3.871v10.277h-1.308
			V135.606z"/>
		<path d="M433.706,156.29l12.051-11.979c1.144-1.117,2.076-2.127,2.798-3.027c0.722-0.902,1.287-1.725,1.695-2.469
			s0.694-1.445,0.857-2.104c0.164-0.66,0.245-1.318,0.245-1.977c0-0.943-0.184-1.816-0.551-2.617
			c-0.368-0.803-0.865-1.504-1.491-2.105c-0.627-0.6-1.376-1.072-2.247-1.416c-0.872-0.344-1.812-0.516-2.818-0.516
			c-1.988,0-3.684,0.537-5.086,1.611c-1.403,1.076-2.608,2.502-3.615,4.279l-1.103-0.73c0.517-0.947,1.103-1.82,1.756-2.623
			c0.654-0.803,1.382-1.484,2.186-2.049c0.804-0.563,1.695-1.006,2.676-1.332s2.069-0.49,3.269-0.49
			c1.252,0,2.396,0.203,3.431,0.604c1.035,0.402,1.926,0.963,2.673,1.68s1.318,1.551,1.716,2.498
			c0.396,0.947,0.596,1.967,0.596,3.057v0.086c0,0.805-0.093,1.588-0.278,2.348c-0.185,0.762-0.505,1.551-0.96,2.369
			s-1.077,1.701-1.866,2.648c-0.791,0.947-1.784,2.023-2.982,3.229l-10.703,10.68h17.157v1.334h-19.403V156.29z"/>
		<path d="M468.897,157.794c-1.522,0-2.889-0.279-4.098-0.838c-1.21-0.561-2.235-1.297-3.078-2.215
			c-1.142-1.205-2.004-2.709-2.589-4.516s-0.877-4.17-0.877-7.096v-0.086c0-2.32,0.259-4.479,0.776-6.471s1.267-3.727,2.247-5.203
			s2.179-2.629,3.595-3.461s3.009-1.248,4.779-1.248c1.553,0,2.988,0.309,4.31,0.926c1.321,0.615,2.58,1.469,3.779,2.559
			l-0.899,1.117c-1.062-1.031-2.199-1.834-3.411-2.408c-1.212-0.572-2.512-0.859-3.9-0.859c-1.525,0-2.9,0.381-4.126,1.139
			c-1.226,0.76-2.261,1.807-3.104,3.139c-0.845,1.334-1.498,2.926-1.961,4.773c-0.464,1.85-0.694,3.85-0.694,5.998v0.086
			c0,0.373,0,0.811,0,1.313s0.013,0.982,0.041,1.441c0.217-0.953,0.597-1.861,1.141-2.727c0.543-0.865,1.209-1.623,1.997-2.271
			s1.692-1.168,2.711-1.557s2.126-0.584,3.322-0.584c1.386,0,2.677,0.23,3.873,0.689c1.195,0.459,2.241,1.1,3.138,1.918
			c0.897,0.818,1.604,1.789,2.12,2.908c0.517,1.121,0.774,2.357,0.774,3.707v0.086c0,1.35-0.251,2.615-0.754,3.793
			s-1.195,2.205-2.079,3.082c-0.884,0.875-1.93,1.572-3.14,2.09S470.283,157.794,468.897,157.794z M469,156.46
			c1.226,0,2.349-0.229,3.37-0.688c1.021-0.457,1.899-1.066,2.635-1.826s1.313-1.643,1.736-2.645
			c0.422-1.004,0.633-2.064,0.633-3.184v-0.086c0-1.146-0.218-2.199-0.653-3.16c-0.437-0.959-1.028-1.799-1.777-2.516
			s-1.647-1.275-2.696-1.676c-1.048-0.402-2.186-0.604-3.41-0.604c-1.199,0-2.309,0.223-3.33,0.668
			c-1.021,0.443-1.913,1.031-2.676,1.762c-0.763,0.732-1.361,1.584-1.797,2.559s-0.653,1.979-0.653,3.01v0.086
			c0,1.148,0.225,2.223,0.674,3.227c0.449,1.002,1.062,1.885,1.838,2.645s1.688,1.354,2.737,1.783
			C466.678,156.245,467.801,156.46,469,156.46z"/>
		<path d="M491.672,157.665c-1.661,0-2.989-0.494-3.983-1.484c-0.994-0.988-1.49-2.473-1.49-4.449v-14.879h-3.146v-1.246h3.146
			v-7.268h1.307v7.268h7.476v1.246h-7.476v14.717c0,1.602,0.374,2.797,1.124,3.582c0.748,0.787,1.804,1.18,3.165,1.18
			c1.008,0,2.043-0.242,3.105-0.73v1.334C493.945,157.421,492.87,157.665,491.672,157.665z"/>
		<path d="M500.78,125.888h1.308v14.879c0.245-0.631,0.585-1.283,1.021-1.957c0.435-0.674,0.979-1.291,1.634-1.85
			c0.653-0.559,1.415-1.01,2.287-1.354c0.871-0.344,1.865-0.518,2.982-0.518c1.361,0,2.566,0.23,3.615,0.689
			c1.048,0.459,1.934,1.111,2.655,1.955c0.721,0.848,1.272,1.85,1.654,3.012c0.381,1.16,0.572,2.443,0.572,3.848v12.686h-1.308
			v-12.445c0-2.516-0.627-4.547-1.879-6.094c-1.253-1.543-3.078-2.316-5.474-2.316c-1.09,0-2.104,0.223-3.044,0.666
			s-1.756,1.051-2.451,1.824c-0.694,0.771-1.245,1.688-1.654,2.744c-0.408,1.061-0.612,2.203-0.612,3.434v12.188h-1.308V125.888z"/>
	</g>
	<g>
		<g>
			<path fill="#191F28" d="M0,32.376l14.038-11.399c1.75-1.444,2.991-2.698,3.724-3.763c0.732-1.063,1.099-2.203,1.099-3.42
				c0-1.254-0.384-2.241-1.152-2.964c-0.769-0.722-1.777-1.083-3.027-1.083c-1.251,0-2.438,0.409-3.563,1.226
				c-1.125,0.817-2.42,2.119-3.885,3.904L0.214,8.664c1-1.368,2.018-2.584,3.054-3.647C4.304,3.953,5.42,3.06,6.617,2.337
				c1.196-0.721,2.518-1.272,3.965-1.652s3.081-0.57,4.903-0.57c2.036,0,3.902,0.313,5.599,0.94
				c1.696,0.627,3.152,1.492,4.367,2.594c1.214,1.103,2.161,2.442,2.84,4.019c0.678,1.577,1.018,3.297,1.018,5.158v0.114
				c0,1.596-0.188,3.021-0.563,4.274s-0.938,2.423-1.688,3.506c-0.75,1.083-1.661,2.119-2.733,3.106
				c-1.071,0.988-2.304,2.015-3.697,3.078l-6.43,4.788h15.485v9.006H0V32.376z"/>
			<path fill="#191F28" d="M52.508,41.496c-2.679,0-5.09-0.541-7.233-1.624c-2.144-1.083-3.957-2.565-5.438-4.446
				c-1.483-1.881-2.625-4.075-3.429-6.584c-0.804-2.508-1.206-5.167-1.206-7.979v-0.114c0-2.812,0.41-5.48,1.232-8.009
				c0.821-2.526,1.982-4.73,3.482-6.611c1.5-1.881,3.322-3.372,5.465-4.475C47.525,0.552,49.936,0,52.615,0
				c2.679,0,5.081,0.542,7.207,1.625c2.125,1.083,3.938,2.564,5.438,4.445c1.5,1.882,2.652,4.076,3.456,6.584
				s1.206,5.168,1.206,7.979v0.114c0,2.813-0.402,5.482-1.206,8.009c-0.804,2.527-1.965,4.73-3.482,6.612
				c-1.519,1.881-3.349,3.372-5.492,4.474C57.598,40.945,55.187,41.496,52.508,41.496z M52.615,31.692
				c1.036,0,1.982-0.266,2.84-0.798c0.857-0.532,1.581-1.283,2.17-2.252s1.045-2.108,1.366-3.42c0.321-1.311,0.482-2.765,0.482-4.36
				v-0.114c0-1.596-0.17-3.059-0.509-4.389c-0.34-1.33-0.813-2.479-1.42-3.448c-0.608-0.97-1.339-1.729-2.197-2.28
				s-1.804-0.826-2.84-0.826c-1.036,0-1.974,0.266-2.813,0.798c-0.839,0.532-1.563,1.273-2.17,2.223
				c-0.607,0.95-1.071,2.091-1.393,3.42c-0.321,1.331-0.482,2.793-0.482,4.389v0.114c0,1.597,0.169,3.069,0.509,4.418
				c0.339,1.349,0.812,2.508,1.42,3.477c0.607,0.969,1.339,1.72,2.197,2.252S51.579,31.692,52.615,31.692z"/>
			<path fill="#191F28" d="M75.226,32.376l14.038-11.399c1.75-1.444,2.991-2.698,3.724-3.763c0.732-1.063,1.099-2.203,1.099-3.42
				c0-1.254-0.384-2.241-1.152-2.964c-0.769-0.722-1.777-1.083-3.027-1.083c-1.251,0-2.438,0.409-3.563,1.226
				c-1.125,0.817-2.42,2.119-3.885,3.904L75.44,8.664c1-1.368,2.018-2.584,3.054-3.647c1.036-1.063,2.151-1.957,3.349-2.68
				c1.196-0.721,2.518-1.272,3.965-1.652s3.081-0.57,4.903-0.57c2.036,0,3.902,0.313,5.599,0.94
				c1.696,0.627,3.152,1.492,4.367,2.594c1.214,1.103,2.161,2.442,2.84,4.019c0.678,1.577,1.018,3.297,1.018,5.158v0.114
				c0,1.596-0.188,3.021-0.563,4.274s-0.938,2.423-1.688,3.506c-0.75,1.083-1.661,2.119-2.733,3.106
				c-1.071,0.988-2.304,2.015-3.697,3.078l-6.43,4.788h15.485v9.006H75.226V32.376z"/>
			<path fill="#191F28" d="M109.999,32.376l14.038-11.399c1.75-1.444,2.991-2.698,3.724-3.763c0.732-1.063,1.099-2.203,1.099-3.42
				c0-1.254-0.384-2.241-1.152-2.964c-0.769-0.722-1.777-1.083-3.027-1.083c-1.251,0-2.438,0.409-3.563,1.226
				c-1.125,0.817-2.42,2.119-3.885,3.904l-7.019-6.213c1-1.368,2.018-2.584,3.054-3.647c1.036-1.063,2.151-1.957,3.349-2.68
				c1.196-0.721,2.518-1.272,3.965-1.652s3.081-0.57,4.903-0.57c2.036,0,3.902,0.313,5.599,0.94
				c1.696,0.627,3.152,1.492,4.367,2.594c1.214,1.103,2.161,2.442,2.84,4.019c0.678,1.577,1.018,3.297,1.018,5.158v0.114
				c0,1.596-0.188,3.021-0.563,4.274s-0.938,2.423-1.688,3.506c-0.75,1.083-1.661,2.119-2.733,3.106
				c-1.071,0.988-2.304,2.015-3.697,3.078l-6.43,4.788h15.485v9.006h-29.684V32.376z"/>
			<path fill="#191F28" d="M179.449,41.473c-2.6,0-5.043-0.498-7.331-1.493c-2.288-0.996-4.272-2.387-5.953-4.176
				c-1.682-1.788-3.015-3.908-4.003-6.36s-1.482-5.116-1.482-7.992V21.34c0-2.802,0.485-5.429,1.456-7.881
				c0.97-2.452,2.305-4.591,4.003-6.416c1.698-1.825,3.717-3.254,6.057-4.286c2.339-1.032,4.895-1.549,7.668-1.549
				c1.872,0,3.569,0.193,5.095,0.58c1.525,0.388,2.92,0.94,4.186,1.659c1.265,0.72,2.409,1.577,3.431,2.572
				c1.022,0.996,1.932,2.084,2.729,3.264l-7.59,6.25c-1.04-1.401-2.184-2.508-3.432-3.319c-1.248-0.811-2.755-1.217-4.523-1.217
				c-1.283,0-2.453,0.269-3.509,0.803c-1.058,0.534-1.968,1.263-2.729,2.185c-0.763,0.922-1.361,2.01-1.794,3.263
				c-0.434,1.254-0.65,2.582-0.65,3.982v0.11c0,1.438,0.216,2.793,0.65,4.065c0.433,1.272,1.031,2.37,1.794,3.291
				c0.762,0.922,1.672,1.65,2.729,2.185c1.057,0.535,2.227,0.802,3.509,0.802c0.936,0,1.793-0.11,2.573-0.332
				c0.78-0.221,1.49-0.543,2.132-0.968c0.641-0.423,1.248-0.921,1.82-1.493c0.572-0.571,1.135-1.207,1.689-1.908l7.591,5.752
				c-0.867,1.254-1.812,2.416-2.833,3.484c-1.023,1.07-2.184,1.991-3.483,2.766s-2.756,1.383-4.367,1.825
				C183.27,41.251,181.458,41.473,179.449,41.473z"/>
			<path fill="#191F28" d="M200.816,0.323h9.93v40.375h-9.93V0.323z"/>
			<path fill="#191F28" d="M231.854,41.417c-2.253,0-4.324-0.406-6.213-1.217c-1.89-0.811-3.527-1.926-4.913-3.346
				c-1.387-1.419-2.461-3.07-3.224-4.95c-0.763-1.881-1.144-3.89-1.144-6.029v-0.11c0-2.138,0.39-4.156,1.17-6.056
				c0.78-1.899,1.862-3.559,3.249-4.979c1.386-1.419,3.033-2.544,4.939-3.374c1.906-0.829,3.985-1.244,6.239-1.244
				c2.252,0,4.323,0.415,6.213,1.244c1.889,0.83,3.526,1.945,4.913,3.347c1.386,1.401,2.46,3.042,3.223,4.923
				c0.762,1.88,1.144,3.891,1.144,6.028v0.11c0,2.139-0.39,4.158-1.17,6.057c-0.78,1.899-1.864,3.559-3.25,4.978
				c-1.387,1.42-3.033,2.544-4.939,3.374C236.186,41.002,234.106,41.417,231.854,41.417z M231.958,32.457
				c0.901,0,1.715-0.174,2.443-0.521c0.728-0.348,1.343-0.823,1.846-1.427c0.502-0.603,0.892-1.307,1.17-2.111
				c0.277-0.805,0.416-1.646,0.416-2.523v-0.11c0-0.914-0.147-1.773-0.442-2.578c-0.295-0.804-0.71-1.509-1.248-2.111
				c-0.538-0.604-1.17-1.088-1.897-1.454c-0.728-0.365-1.526-0.549-2.392-0.549c-0.902,0-1.716,0.174-2.444,0.521
				c-0.728,0.348-1.343,0.823-1.846,1.427s-0.893,1.308-1.169,2.112c-0.278,0.805-0.416,1.646-0.416,2.522v0.109
				c0,0.914,0.147,1.774,0.442,2.579c0.294,0.805,0.71,1.508,1.248,2.111c0.537,0.603,1.17,1.088,1.898,1.453
				C230.294,32.274,231.091,32.457,231.958,32.457z"/>
			<path fill="#191F28" d="M262.319,41.362c-3.031,0-5.393-0.977-7.083-2.932c-1.69-1.954-2.536-4.646-2.536-8.075V10.776h9.93
				v16.205c0,1.659,0.359,2.913,1.078,3.761c0.718,0.849,1.677,1.272,2.874,1.272c1.164,0,2.129-0.424,2.899-1.272
				c0.771-0.848,1.156-2.102,1.156-3.761V10.776h9.93v29.922h-9.93v-4.093c-0.891,1.254-2.003,2.36-3.338,3.318
				C265.964,40.882,264.305,41.362,262.319,41.362z"/>
			<path fill="#191F28" d="M298.557,41.362c-1.664,0-3.25-0.36-4.758-1.079s-2.824-1.742-3.951-3.069s-2.027-2.949-2.703-4.867
				c-0.676-1.917-1.014-4.074-1.014-6.472v-0.11c0-2.434,0.328-4.618,0.985-6.554c0.656-1.936,1.556-3.576,2.696-4.923
				c1.141-1.346,2.455-2.378,3.941-3.097c1.487-0.72,3.061-1.079,4.72-1.079c2.108,0,3.837,0.434,5.187,1.3
				c1.348,0.867,2.488,1.872,3.423,3.015V0.323h9.931v40.375h-9.931l0.052-3.982c-0.971,1.254-2.114,2.342-3.432,3.264
				C302.386,40.9,300.67,41.362,298.557,41.362z M301.546,32.567c0.793,0,1.534-0.165,2.226-0.497
				c0.689-0.332,1.293-0.802,1.811-1.41s0.924-1.328,1.217-2.157c0.293-0.83,0.439-1.742,0.439-2.738v-0.11
				c0-0.996-0.146-1.898-0.439-2.71c-0.293-0.811-0.699-1.521-1.217-2.13s-1.121-1.078-1.811-1.41
				c-0.691-0.332-1.433-0.498-2.226-0.498c-0.794,0-1.535,0.166-2.226,0.498c-0.691,0.332-1.295,0.793-1.813,1.383
				c-0.517,0.59-0.932,1.3-1.241,2.129c-0.311,0.83-0.466,1.742-0.466,2.738v0.11c0,0.996,0.155,1.908,0.466,2.738
				c0.31,0.829,0.725,1.549,1.241,2.157c0.518,0.608,1.121,1.078,1.813,1.41C300.011,32.402,300.752,32.567,301.546,32.567z"/>
			<path fill="#191F28" d="M1.456,53.982h14.037c3.257,0,6.161,0.47,8.708,1.41c2.547,0.94,4.696,2.259,6.447,3.954
				c1.75,1.696,3.084,3.716,4.003,6.057c0.917,2.342,1.377,4.914,1.377,7.716v0.11c0,2.803-0.468,5.393-1.404,7.771
				c-0.936,2.379-2.288,4.435-4.055,6.167c-1.768,1.734-3.943,3.089-6.525,4.065c-2.582,0.978-5.502,1.466-8.76,1.466H1.456V53.982z
				 M15.664,83.186c3.026,0,5.46-0.849,7.305-2.545c1.844-1.695,2.766-4.11,2.766-7.245v-0.11c0-3.098-0.922-5.504-2.766-7.218
				c-1.844-1.715-4.279-2.572-7.305-2.572h-4.123v19.69H15.664z"/>
			<path fill="#191F28" d="M55.889,93.417c-2.219,0-4.246-0.378-6.083-1.134c-1.837-0.755-3.423-1.806-4.757-3.152
				c-1.335-1.346-2.375-2.978-3.12-4.895c-0.746-1.917-1.118-4.038-1.118-6.361v-0.11c0-2.175,0.346-4.212,1.04-6.111
				c0.693-1.898,1.672-3.558,2.938-4.978c1.265-1.419,2.764-2.535,4.497-3.347c1.733-0.811,3.64-1.217,5.719-1.217
				c2.426,0,4.531,0.442,6.317,1.327c1.785,0.886,3.257,2.074,4.419,3.567c1.161,1.494,2.028,3.228,2.6,5.199
				c0.572,1.974,0.858,4.065,0.858,6.277c0,0.332,0,0.684,0,1.052s-0.018,0.737-0.052,1.105h-18.82
				c0.381,1.659,1.1,2.896,2.158,3.706c1.057,0.812,2.365,1.217,3.925,1.217c1.178,0,2.261-0.239,3.249-0.719
				s1.984-1.254,2.99-2.323l5.459,4.812c-1.352,1.845-3.024,3.318-5.017,4.425C61.096,92.864,58.697,93.417,55.889,93.417z
				 M59.944,75.276c-0.174-1.659-0.694-2.978-1.56-3.955c-0.867-0.977-1.976-1.466-3.328-1.466c-1.317,0-2.392,0.489-3.223,1.466
				c-0.832,0.978-1.387,2.296-1.664,3.955H59.944z"/>
			<path fill="#191F28" d="M72.578,62.776h10.398l5.407,17.478l5.407-17.478h10.242L92.802,92.92h-8.994L72.578,62.776z"/>
			<path fill="#191F28" d="M122.437,93.417c-2.219,0-4.246-0.378-6.083-1.134c-1.837-0.755-3.423-1.806-4.757-3.152
				c-1.335-1.346-2.375-2.978-3.12-4.895c-0.746-1.917-1.118-4.038-1.118-6.361v-0.11c0-2.175,0.346-4.212,1.04-6.111
				c0.693-1.898,1.672-3.558,2.938-4.978c1.265-1.419,2.764-2.535,4.497-3.347c1.733-0.811,3.64-1.217,5.719-1.217
				c2.426,0,4.531,0.442,6.317,1.327c1.785,0.886,3.257,2.074,4.419,3.567c1.161,1.494,2.028,3.228,2.6,5.199
				c0.572,1.974,0.858,4.065,0.858,6.277c0,0.332,0,0.684,0,1.052s-0.018,0.737-0.052,1.105h-18.82
				c0.381,1.659,1.1,2.896,2.158,3.706c1.057,0.812,2.365,1.217,3.925,1.217c1.178,0,2.261-0.239,3.249-0.719
				s1.984-1.254,2.99-2.323l5.459,4.812c-1.352,1.845-3.024,3.318-5.017,4.425C127.644,92.864,125.244,93.417,122.437,93.417z
				 M126.492,75.276c-0.174-1.659-0.694-2.978-1.56-3.955c-0.867-0.977-1.976-1.466-3.328-1.466c-1.317,0-2.392,0.489-3.223,1.466
				c-0.832,0.978-1.387,2.296-1.664,3.955H126.492z"/>
			<path fill="#191F28" d="M141.465,52.323h9.93v40.375h-9.93V52.323z"/>
			<path fill="#191F28" d="M172.502,93.417c-2.253,0-4.324-0.406-6.213-1.217c-1.89-0.811-3.527-1.926-4.913-3.346
				c-1.387-1.419-2.461-3.07-3.224-4.95c-0.763-1.881-1.144-3.89-1.144-6.029v-0.11c0-2.138,0.39-4.156,1.17-6.056
				c0.78-1.899,1.862-3.559,3.249-4.979c1.386-1.419,3.033-2.544,4.939-3.374c1.906-0.829,3.985-1.244,6.239-1.244
				c2.252,0,4.323,0.415,6.213,1.244c1.889,0.83,3.526,1.945,4.913,3.347c1.386,1.401,2.46,3.042,3.223,4.923
				c0.762,1.88,1.144,3.891,1.144,6.028v0.11c0,2.139-0.39,4.158-1.17,6.057c-0.78,1.899-1.864,3.559-3.25,4.978
				c-1.387,1.42-3.033,2.544-4.939,3.374C176.834,93.002,174.755,93.417,172.502,93.417z M172.606,84.457
				c0.901,0,1.715-0.174,2.443-0.521c0.728-0.348,1.343-0.823,1.846-1.427c0.502-0.603,0.892-1.307,1.17-2.111
				c0.277-0.805,0.416-1.646,0.416-2.523v-0.11c0-0.914-0.147-1.773-0.442-2.578c-0.295-0.804-0.71-1.509-1.248-2.111
				c-0.538-0.604-1.17-1.088-1.897-1.454c-0.728-0.365-1.526-0.549-2.392-0.549c-0.902,0-1.716,0.174-2.444,0.521
				c-0.728,0.348-1.343,0.823-1.846,1.427s-0.893,1.308-1.169,2.112c-0.278,0.805-0.416,1.646-0.416,2.522v0.109
				c0,0.914,0.147,1.774,0.442,2.579c0.294,0.805,0.71,1.508,1.248,2.111c0.537,0.603,1.17,1.088,1.898,1.453
				C170.942,84.274,171.739,84.457,172.606,84.457z"/>
			<path fill="#191F28" d="M193.558,62.776h9.93v3.982c0.484-0.627,1.002-1.217,1.556-1.771c0.553-0.553,1.167-1.041,1.842-1.466
				c0.674-0.423,1.435-0.765,2.282-1.022c0.847-0.258,1.789-0.388,2.826-0.388c1.659,0,3.241,0.359,4.745,1.079
				c1.504,0.719,2.827,1.742,3.967,3.069s2.049,2.95,2.723,4.867c0.674,1.918,1.011,4.074,1.011,6.471v0.111
				c0,2.434-0.337,4.618-1.011,6.554s-1.574,3.577-2.697,4.923c-1.124,1.346-2.438,2.378-3.941,3.097
				c-1.504,0.719-3.086,1.079-4.745,1.079c-1.073,0-2.032-0.12-2.878-0.36c-0.847-0.24-1.617-0.553-2.308-0.939
				c-0.692-0.388-1.314-0.848-1.868-1.383c-0.553-0.534-1.055-1.079-1.504-1.632v12.5h-9.93V62.776z M208.973,84.567
				c1.622,0,2.985-0.626,4.089-1.88c1.104-1.253,1.656-2.895,1.656-4.923v-0.11c0-1.991-0.552-3.613-1.656-4.867
				c-1.104-1.253-2.467-1.881-4.089-1.881c-0.793,0-1.535,0.166-2.226,0.498s-1.294,0.802-1.812,1.41s-0.923,1.319-1.216,2.13
				c-0.293,0.812-0.439,1.714-0.439,2.71v0.11c0,0.996,0.146,1.908,0.439,2.738c0.293,0.829,0.699,1.549,1.216,2.157
				s1.121,1.078,1.812,1.41S208.179,84.567,208.973,84.567z"/>
			<path fill="#191F28" d="M243.936,93.417c-2.219,0-4.246-0.378-6.083-1.134c-1.837-0.755-3.423-1.806-4.757-3.152
				c-1.335-1.346-2.375-2.978-3.12-4.895c-0.746-1.917-1.118-4.038-1.118-6.361v-0.11c0-2.175,0.346-4.212,1.04-6.111
				c0.693-1.898,1.672-3.558,2.938-4.978c1.265-1.419,2.764-2.535,4.497-3.347c1.733-0.811,3.64-1.217,5.719-1.217
				c2.426,0,4.531,0.442,6.317,1.327c1.785,0.886,3.257,2.074,4.419,3.567c1.161,1.494,2.028,3.228,2.6,5.199
				c0.572,1.974,0.858,4.065,0.858,6.277c0,0.332,0,0.684,0,1.052s-0.018,0.737-0.052,1.105h-18.82
				c0.381,1.659,1.1,2.896,2.158,3.706c1.057,0.812,2.365,1.217,3.925,1.217c1.178,0,2.261-0.239,3.249-0.719
				s1.984-1.254,2.99-2.323l5.459,4.812c-1.352,1.845-3.024,3.318-5.017,4.425C249.143,92.864,246.744,93.417,243.936,93.417z
				 M247.991,75.276c-0.174-1.659-0.694-2.978-1.56-3.955c-0.867-0.977-1.976-1.466-3.328-1.466c-1.317,0-2.392,0.489-3.223,1.466
				c-0.832,0.978-1.387,2.296-1.664,3.955H247.991z"/>
			<path fill="#191F28" d="M262.756,62.776h9.93v6.028c0.797-2.027,1.889-3.65,3.275-4.867c1.386-1.217,3.258-1.77,5.615-1.659
				V73.34h-0.832c-2.6,0-4.593,0.812-5.979,2.434c-1.387,1.623-2.079,4.167-2.079,7.633v9.292h-9.93V62.776z"/>
			<path fill="#191F28" d="M284.904,69.967c1.768-0.185,3.094-0.72,3.977-1.604c0.885-0.885,1.291-2.083,1.223-3.595H286.1V53.982
				h10.295v8.794c0,2.065-0.252,3.798-0.754,5.199c-0.504,1.401-1.215,2.535-2.133,3.401s-2.036,1.512-3.353,1.936
				c-1.317,0.425-2.79,0.655-4.419,0.691L284.904,69.967z"/>
			<path fill="#191F28" d="M313.551,93.362c-2.392,0-4.715-0.36-6.967-1.079c-2.254-0.719-4.367-1.834-6.343-3.346l3.691-6.36
				c1.628,1.143,3.283,2,4.965,2.571c1.681,0.572,3.249,0.857,4.705,0.857c1.663,0,2.495-0.534,2.495-1.604v-0.111
				c0-0.589-0.381-1.051-1.144-1.383c-0.763-0.331-1.89-0.719-3.379-1.161c-1.387-0.368-2.687-0.802-3.899-1.3
				c-1.214-0.498-2.271-1.106-3.172-1.825s-1.611-1.595-2.131-2.627s-0.78-2.304-0.78-3.816v-0.11c0-1.585,0.286-2.996,0.858-4.231
				c0.571-1.235,1.359-2.268,2.365-3.098c1.005-0.829,2.191-1.465,3.561-1.908c1.369-0.442,2.868-0.663,4.498-0.663
				c2.079,0,4.124,0.304,6.135,0.912c2.01,0.608,3.829,1.466,5.459,2.572l-3.379,6.637c-1.457-0.848-2.93-1.521-4.42-2.019
				s-2.791-0.747-3.898-0.747c-0.764,0-1.336,0.139-1.717,0.415s-0.571,0.618-0.571,1.023v0.11c0,0.591,0.39,1.061,1.169,1.41
				c0.78,0.352,1.916,0.767,3.406,1.245c1.386,0.406,2.686,0.857,3.898,1.354c1.213,0.498,2.271,1.106,3.172,1.825
				c0.9,0.72,1.611,1.596,2.132,2.628c0.52,1.032,0.78,2.268,0.78,3.705v0.11c0,1.66-0.278,3.107-0.832,4.342
				c-0.555,1.236-1.335,2.277-2.34,3.125c-1.006,0.849-2.219,1.485-3.64,1.908C316.809,93.149,315.248,93.362,313.551,93.362z"/>
			<path fill="#191F28" d="M346.668,53.982h14.037c3.258,0,6.161,0.47,8.708,1.41c2.548,0.94,4.696,2.259,6.447,3.954
				c1.75,1.696,3.084,3.716,4.003,6.057c0.918,2.342,1.378,4.914,1.378,7.716v0.11c0,2.803-0.468,5.393-1.403,7.771
				c-0.937,2.379-2.288,4.435-4.056,6.167c-1.768,1.734-3.943,3.089-6.524,4.065c-2.583,0.978-5.503,1.466-8.761,1.466h-13.829
				V53.982z M360.877,83.186c3.025,0,5.46-0.849,7.305-2.545c1.844-1.695,2.766-4.11,2.766-7.245v-0.11
				c0-3.098-0.922-5.504-2.766-7.218c-1.845-1.715-4.279-2.572-7.305-2.572h-4.123v19.69H360.877z"/>
			<path fill="#191F28" d="M395.227,93.362c-1.352,0-2.6-0.203-3.743-0.608s-2.141-0.996-2.989-1.771
				c-0.85-0.774-1.517-1.732-2.002-2.876c-0.485-1.143-0.728-2.47-0.728-3.982v-0.11c0-1.549,0.268-2.912,0.806-4.093
				c0.537-1.18,1.282-2.157,2.235-2.932s2.105-1.363,3.457-1.77c1.353-0.405,2.86-0.608,4.523-0.608c1.317,0,2.573,0.12,3.77,0.359
				c1.195,0.24,2.191,0.508,2.989,0.802v-0.497c0-1.549-0.46-2.747-1.378-3.596c-0.918-0.848-2.331-1.271-4.237-1.271
				c-1.49,0-2.842,0.147-4.055,0.442c-1.214,0.295-2.443,0.7-3.691,1.217l-2.027-7.412c1.594-0.699,3.283-1.262,5.068-1.687
				c1.785-0.424,3.891-0.636,6.317-0.636c2.529,0,4.67,0.313,6.421,0.94c1.749,0.627,3.18,1.53,4.289,2.71
				c1.074,1.105,1.846,2.442,2.313,4.01s0.702,3.401,0.702,5.503v17.201h-9.774v-3.098c-0.971,1.144-2.124,2.057-3.457,2.738
				C398.701,93.021,397.099,93.362,395.227,93.362z M398.762,86.78c1.456,0,2.634-0.442,3.535-1.327
				c0.901-0.886,1.353-2.083,1.353-3.596v-1.383c-0.486-0.221-1.066-0.405-1.742-0.553c-0.676-0.146-1.378-0.222-2.105-0.222
				c-1.456,0-2.573,0.342-3.354,1.023c-0.779,0.683-1.17,1.576-1.17,2.683v0.11c0,1.033,0.329,1.835,0.988,2.406
				C396.925,86.495,397.756,86.78,398.762,86.78z"/>
			<path fill="#191F28" d="M427.928,101.714c-1.768,0-3.388-0.239-4.861-0.714c-1.473-0.478-2.868-1.1-4.185-1.868l3.067-7.318
				c0.797,0.517,1.576,0.912,2.34,1.188c0.762,0.277,1.42,0.415,1.976,0.415c0.484,0,0.909-0.084,1.273-0.249
				c0.364-0.166,0.702-0.489,1.014-0.97L417.53,62.776h10.346l5.615,18.03l5.303-18.03h10.138l-10.294,29.203
				c-0.624,1.732-1.266,3.216-1.924,4.452c-0.658,1.235-1.403,2.24-2.235,3.015s-1.785,1.345-2.859,1.714
				C430.545,101.528,429.313,101.714,427.928,101.714z"/>
		</g>
	</g>
</g>
</svg>
