<?xml version="1.0" encoding="utf-8"?>
<!-- Generator: Adobe Illustrator 16.0.0, SVG Export Plug-In . SVG Version: 6.00 Build 0)  -->
<!DOCTYPE svg PUBLIC "-//W3C//DTD SVG 1.1//EN" "http://www.w3.org/Graphics/SVG/1.1/DTD/svg11.dtd">
<svg version="1.1" id="Layer_1" xmlns="http://www.w3.org/2000/svg" xmlns:xlink="http://www.w3.org/1999/xlink" x="0px" y="0px"
	 width="225.129px" height="65.058px" viewBox="0 0 225.129 65.058" enable-background="new 0 0 225.129 65.058"
	 xml:space="preserve">
<g>
	<path fill="#333333" d="M0,0.454h5.253v26.522H0V0.454z"/>
	<path fill="#333333" d="M11.821,0.454h4.842l11.186,16.33V0.454h5.182v26.522h-4.465l-11.561-16.86v16.86h-5.184V0.454z"/>
	<path fill="#333333" d="M44.599,5.835h-7.263V0.454h19.777v5.381H49.85v21.142h-5.251V5.835z"/>
	<path fill="#333333" d="M60.932,0.454h17.973v5.19H66.115v5.381h11.254v5.191H66.115v5.57h12.959v5.189H60.932V0.454z"/>
	<path fill="#333333" d="M84.206,0.454h5.251v21.257h11.9v5.266H84.206V0.454z"/>
	<path fill="#333333" d="M105.484,0.454h5.252v21.257h11.9v5.266h-17.152V0.454z"/>
	<path fill="#333333" d="M130.673,16.521l-9.174-16.066h6.139l5.695,10.646l5.797-10.646h5.967l-9.172,15.951v10.571h-5.252V16.521z
		"/>
	<path fill="#333333" d="M154.562,5.835h-7.264V0.454h19.779v5.381h-7.264v21.142h-5.252V5.835z"/>
	<path fill="#333333" d="M172.602,0.454h5.252v26.522h-5.252V0.454z"/>
	<path fill="#333333" d="M194.495,27.431c-1.752,0-3.375-0.353-4.877-1.061c-1.5-0.706-2.797-1.672-3.887-2.898
		c-1.092-1.224-1.943-2.671-2.559-4.338c-0.613-1.666-0.92-3.447-0.92-5.342v-0.076c0-1.896,0.307-3.668,0.92-5.323
		c0.615-1.655,1.467-3.106,2.559-4.357c1.09-1.25,2.398-2.236,3.922-2.955C191.177,0.359,192.858,0,194.7,0
		c1.113,0,2.131,0.102,3.051,0.303c0.922,0.203,1.756,0.479,2.506,0.834c0.752,0.354,1.445,0.783,2.08,1.289
		c0.637,0.505,1.229,1.061,1.775,1.666l-3.344,4.281c-0.932-0.934-1.881-1.666-2.846-2.198c-0.967-0.53-2.053-0.794-3.258-0.794
		c-1,0-1.926,0.214-2.779,0.644c-0.852,0.43-1.586,1.023-2.199,1.781s-1.092,1.636-1.432,2.632
		c-0.342,0.999-0.512,2.065-0.512,3.202v0.076c0,1.138,0.17,2.21,0.512,3.22c0.34,1.011,0.811,1.895,1.414,2.654
		c0.604,0.757,1.33,1.355,2.182,1.798c0.854,0.443,1.791,0.664,2.814,0.664c1.363,0,2.518-0.276,3.461-0.835
		c0.943-0.556,1.881-1.312,2.813-2.271l3.342,3.749c-0.613,0.734-1.25,1.391-1.908,1.972c-0.66,0.582-1.381,1.08-2.166,1.497
		c-0.783,0.417-1.643,0.732-2.574,0.947C196.7,27.324,195.653,27.431,194.495,27.431z"/>
	<path fill="#333333" d="M216.4,27.354c-1.818,0-3.604-0.345-5.354-1.041c-1.752-0.693-3.343-1.762-4.774-3.202l3.103-4.129
		c1.092,0.985,2.211,1.769,3.359,2.349c1.148,0.582,2.403,0.873,3.768,0.873c1.091,0,1.939-0.223,2.541-0.664
		s0.904-1.055,0.904-1.838v-0.076c0-0.378-0.063-0.713-0.189-1.004c-0.125-0.29-0.365-0.563-0.718-0.813
		c-0.353-0.252-0.844-0.507-1.47-0.758c-0.627-0.253-1.441-0.518-2.445-0.797c-1.209-0.328-2.303-0.694-3.281-1.098
		c-0.98-0.404-1.813-0.902-2.496-1.498c-0.686-0.593-1.215-1.331-1.59-2.216c-0.377-0.884-0.564-1.981-0.564-3.296V8.069
		c0-1.211,0.203-2.305,0.609-3.275c0.406-0.973,0.977-1.813,1.711-2.521c0.734-0.705,1.61-1.249,2.629-1.628
		c1.02-0.38,2.143-0.568,3.371-0.568c1.75,0,3.359,0.29,4.825,0.871c1.466,0.58,2.813,1.414,4.04,2.501l-2.728,4.394
		c-1.068-0.808-2.114-1.445-3.137-1.912s-2.046-0.702-3.069-0.702s-1.79,0.222-2.302,0.663c-0.513,0.443-0.767,0.992-0.767,1.648
		v0.077c0,0.429,0.073,0.801,0.221,1.117c0.148,0.315,0.416,0.6,0.805,0.853c0.387,0.252,0.916,0.493,1.59,0.719
		c0.672,0.229,1.521,0.493,2.547,0.796c1.207,0.355,2.285,0.753,3.231,1.194c0.944,0.441,1.743,0.972,2.393,1.591
		c0.651,0.619,1.14,1.346,1.47,2.179c0.332,0.833,0.496,1.833,0.496,2.994v0.075c0,1.313-0.214,2.481-0.644,3.504
		c-0.429,1.024-1.026,1.883-1.794,2.578c-0.77,0.694-1.686,1.225-2.75,1.591C218.876,27.172,217.695,27.354,216.4,27.354z"/>
	<path fill="#333333" d="M0,38.081h9.31c1.863,0,3.576,0.336,5.132,1.005c1.558,0.67,2.898,1.598,4.024,2.784
		c1.125,1.188,1.994,2.584,2.609,4.187c0.613,1.605,0.92,3.341,0.92,5.21v0.076c0,1.87-0.307,3.612-0.92,5.229
		c-0.615,1.616-1.484,3.018-2.609,4.206c-1.126,1.187-2.467,2.12-4.024,2.802c-1.556,0.683-3.269,1.023-5.132,1.023H0V38.081z
		 M9.31,59.337c1.068,0,2.047-0.189,2.933-0.568c0.888-0.379,1.642-0.921,2.269-1.629c0.623-0.707,1.113-1.54,1.467-2.501
		c0.352-0.96,0.527-2.033,0.527-3.219v-0.077c0-1.162-0.176-2.234-0.527-3.221c-0.354-0.985-0.844-1.831-1.467-2.539
		c-0.627-0.705-1.381-1.255-2.269-1.648c-0.886-0.391-1.864-0.587-2.933-0.587H5.251v15.989H9.31z"/>
	<path fill="#333333" d="M33.969,37.892h4.842L49.04,64.604H43.55l-2.182-5.948H31.275l-2.184,5.948h-5.353L33.969,37.892z
		 M39.493,53.502l-3.17-8.6l-3.173,8.6H39.493z"/>
	<path fill="#333333" d="M60.48,64.982c-1.818,0-3.604-0.347-5.354-1.042c-1.752-0.693-3.342-1.762-4.773-3.202l3.102-4.128
		c1.092,0.984,2.211,1.768,3.359,2.347c1.148,0.583,2.403,0.874,3.768,0.874c1.092,0,1.939-0.223,2.541-0.663
		c0.602-0.442,0.904-1.055,0.904-1.838v-0.077c0-0.378-0.063-0.713-0.189-1.004c-0.125-0.29-0.364-0.563-0.717-0.813
		c-0.354-0.253-0.844-0.506-1.471-0.758c-0.627-0.253-1.441-0.518-2.445-0.797c-1.208-0.328-2.303-0.694-3.281-1.098
		c-0.98-0.404-1.813-0.902-2.496-1.497c-0.685-0.593-1.214-1.332-1.59-2.217s-0.564-1.982-0.564-3.297v-0.076
		c0-1.211,0.203-2.304,0.609-3.275c0.406-0.973,0.977-1.813,1.711-2.521c0.734-0.705,1.611-1.249,2.63-1.627
		c1.019-0.381,2.143-0.569,3.371-0.569c1.749,0,3.358,0.29,4.825,0.872c1.466,0.579,2.813,1.413,4.04,2.5l-2.729,4.395
		c-1.068-0.809-2.114-1.446-3.136-1.913c-1.023-0.467-2.047-0.702-3.07-0.702s-1.789,0.222-2.302,0.663
		c-0.513,0.443-0.767,0.992-0.767,1.648v0.077c0,0.428,0.073,0.801,0.221,1.117c0.148,0.315,0.416,0.601,0.805,0.853
		c0.388,0.252,0.916,0.493,1.59,0.72c0.672,0.229,1.521,0.492,2.547,0.796c1.208,0.354,2.285,0.752,3.232,1.193
		c0.944,0.441,1.742,0.973,2.393,1.592s1.139,1.345,1.47,2.178s0.495,1.832,0.495,2.994v0.075c0,1.313-0.213,2.482-0.643,3.504
		c-0.43,1.023-1.027,1.882-1.795,2.578c-0.77,0.694-1.686,1.225-2.75,1.591C62.957,64.799,61.775,64.982,60.48,64.982z"/>
	<path fill="#333333" d="M74.079,38.081h5.252v10.496h9.684V38.081h5.252v26.522h-5.252V53.958h-9.684v10.646h-5.252V38.081z"/>
	<path fill="#333333" d="M99.437,38.081h11.063c2.746,0,4.823,0.784,6.23,2.349c1.09,1.214,1.633,2.716,1.633,4.509v0.076
		c0,0.758-0.086,1.428-0.254,2.009c-0.169,0.582-0.396,1.104-0.678,1.572c-0.283,0.468-0.609,0.878-0.982,1.231
		s-0.773,0.657-1.203,0.908c1.381,0.582,2.467,1.371,3.26,2.368c0.791,0.999,1.188,2.382,1.188,4.149v0.077
		c0,1.212-0.21,2.272-0.629,3.182c-0.422,0.91-1.021,1.667-1.805,2.274c-0.785,0.605-1.727,1.061-2.826,1.363
		c-1.102,0.303-2.321,0.454-3.659,0.454H99.437V38.081z M109.394,48.805c1.16,0,2.08-0.222,2.763-0.664
		c0.683-0.441,1.023-1.156,1.023-2.141v-0.075c0-0.884-0.296-1.561-0.887-2.027c-0.592-0.467-1.444-0.701-2.558-0.701h-5.184v5.608
		H109.394z M110.792,59.489c1.159,0,2.068-0.233,2.729-0.702c0.658-0.466,0.988-1.192,0.988-2.177v-0.077
		c0-0.884-0.307-1.584-0.92-2.103c-0.613-0.518-1.604-0.776-2.967-0.776h-6.07v5.835H110.792z"/>
	<path fill="#333333" d="M135.589,65.058c-1.842,0-3.535-0.358-5.082-1.079c-1.545-0.72-2.881-1.69-4.004-2.917
		c-1.127-1.226-2.002-2.665-2.627-4.319c-0.627-1.655-0.938-3.429-0.938-5.322v-0.077c0-1.895,0.318-3.668,0.953-5.323
		c0.637-1.655,1.52-3.106,2.643-4.357c1.127-1.249,2.469-2.236,4.025-2.955c1.557-0.721,3.256-1.079,5.098-1.079
		s3.535,0.358,5.082,1.079c1.545,0.719,2.881,1.691,4.006,2.917s2,2.666,2.625,4.319c0.627,1.655,0.938,3.429,0.938,5.323v0.076
		c0,1.894-0.318,3.669-0.955,5.323c-0.635,1.655-1.516,3.106-2.641,4.357c-1.127,1.249-2.469,2.235-4.025,2.955
		C139.13,64.699,137.431,65.058,135.589,65.058z M135.657,59.678c1.045,0,2.012-0.215,2.898-0.644s1.643-1.023,2.268-1.781
		s1.113-1.635,1.467-2.631c0.352-1,0.527-2.067,0.527-3.202v-0.077c0-1.138-0.176-2.211-0.527-3.221
		c-0.354-1.009-0.854-1.895-1.5-2.652c-0.648-0.757-1.416-1.356-2.303-1.801c-0.887-0.44-1.854-0.661-2.898-0.661
		c-1.068,0-2.041,0.214-2.916,0.644c-0.875,0.429-1.625,1.023-2.25,1.78c-0.625,0.758-1.113,1.637-1.467,2.633
		c-0.352,0.999-0.527,2.065-0.527,3.202v0.076c0,1.137,0.176,2.21,0.527,3.221c0.354,1.01,0.854,1.895,1.502,2.652
		c0.646,0.758,1.408,1.356,2.283,1.8S134.589,59.678,135.657,59.678z"/>
	<path fill="#333333" d="M159.26,37.892h4.843l10.229,26.712h-5.49l-2.182-5.948h-10.094l-2.183,5.948h-5.353L159.26,37.892z
		 M164.785,53.502l-3.172-8.6l-3.172,8.6H164.785z"/>
	<path fill="#333333" d="M177.425,38.081h10.913c3.021,0,5.342,0.897,6.956,2.69c1.364,1.516,2.046,3.535,2.046,6.063v0.076
		c0,2.146-0.473,3.896-1.416,5.246c-0.943,1.353-2.178,2.344-3.699,2.975l5.83,9.473h-6.137l-5.115-8.487h-0.068h-4.059v8.487
		h-5.251V38.081z M187.996,50.964c1.296,0,2.29-0.341,2.984-1.022c0.693-0.684,1.039-1.593,1.039-2.729v-0.076
		c0-1.263-0.363-2.21-1.09-2.842c-0.729-0.631-1.74-0.947-3.036-0.947h-5.218v7.616H187.996z"/>
	<path fill="#333333" d="M203.135,38.081h9.309c1.865,0,3.576,0.336,5.133,1.005c1.557,0.67,2.898,1.598,4.023,2.784
		c1.126,1.188,1.994,2.584,2.609,4.187c0.614,1.605,0.92,3.341,0.92,5.21v0.076c0,1.87-0.306,3.612-0.92,5.229
		c-0.615,1.616-1.483,3.018-2.609,4.206c-1.125,1.187-2.467,2.12-4.023,2.802c-1.557,0.683-3.268,1.023-5.133,1.023h-9.309V38.081z
		 M212.443,59.337c1.068,0,2.047-0.189,2.934-0.568s1.641-0.921,2.268-1.629c0.624-0.707,1.114-1.54,1.467-2.501
		c0.352-0.96,0.527-2.033,0.527-3.219v-0.077c0-1.162-0.176-2.234-0.527-3.221c-0.353-0.985-0.843-1.831-1.467-2.539
		c-0.627-0.705-1.381-1.255-2.268-1.648c-0.887-0.391-1.865-0.587-2.934-0.587h-4.057v15.989H212.443z"/>
</g>
</svg>
