<?xml version="1.0" encoding="utf-8"?>
<!-- Generator: Adobe Illustrator 16.0.0, SVG Export Plug-In . SVG Version: 6.00 Build 0)  -->
<!DOCTYPE svg PUBLIC "-//W3C//DTD SVG 1.1//EN" "http://www.w3.org/Graphics/SVG/1.1/DTD/svg11.dtd">
<svg version="1.1" id="Layer_1" xmlns="http://www.w3.org/2000/svg" xmlns:xlink="http://www.w3.org/1999/xlink" x="0px" y="0px"
	 width="43px" height="40px" viewBox="0 0 43 40" enable-background="new 0 0 43 40" xml:space="preserve">
<g>
	<g>
		<g>
			<path fill="#4D4DDB" d="M29.232,18.88h14.63V9.326c0-1.727-0.141-3.182-0.42-4.364s-0.753-2.138-1.42-2.872
				c-0.667-0.729-1.557-1.26-2.672-1.594C38.236,0.168,36.843,0,35.171,0h-0.257h-5.682V18.88z"/>
			<polygon fill="#FF7900" points="25.188,18.88 25.188,0 19.198,0 16.968,0 0.862,0 0.862,12.821 0.862,18.88 			"/>
			<path fill="#207589" d="M14.354,22.637H0.862v8.039c0,1.726,0.137,3.179,0.416,4.363c0.279,1.184,0.752,2.137,1.422,2.869
				c0.668,0.73,1.559,1.261,2.673,1.596C6.485,39.832,7.88,40,9.55,40h0.26h4.545V22.637z"/>
			<polygon fill="#D82121" points="18.396,22.637 18.396,40 25.522,40 27.755,40 43.862,40 43.862,27.179 43.862,22.637 			"/>
		</g>
	</g>
</g>
</svg>
