<?xml version="1.0" encoding="utf-8"?>
<!-- Generator: Adobe Illustrator 16.0.0, SVG Export Plug-In . SVG Version: 6.00 Build 0)  -->
<!DOCTYPE svg PUBLIC "-//W3C//DTD SVG 1.1//EN" "http://www.w3.org/Graphics/SVG/1.1/DTD/svg11.dtd">
<svg version="1.1" id="Layer_1" xmlns="http://www.w3.org/2000/svg" xmlns:xlink="http://www.w3.org/1999/xlink" x="0px" y="0px"
	 width="77.184px" height="34px" viewBox="0 0 77.184 34" enable-background="new 0 0 77.184 34" xml:space="preserve">
<g>
	<polygon fill="#6B6B6B" points="46.68,5.918 41.602,5.918 41.602,27.896 57.199,27.896 57.199,23.616 46.68,23.616 	"/>
	<g>
		<path fill="#6B6B6B" d="M68.37,19.519h4.134v3.843c-0.762,0.292-2.246,0.582-3.661,0.582c-4.571,0-6.095-2.323-6.095-7.037
			c0-4.497,1.449-7.146,6.021-7.146c2.54,0,3.989,0.798,5.187,2.322l3.157-2.902c-1.925-2.755-5.298-3.59-8.453-3.59
			c-7.108,0-10.845,3.88-10.845,11.279c0,7.364,3.373,11.354,10.809,11.354c3.41,0,6.748-0.872,8.561-2.14V15.42H68.37V19.519z"/>
	</g>
	<g>
		<path fill="#A50034" d="M17.001,34c9.391,0,17.002-7.616,17.002-17.002C34.003,7.607,26.392,0,17.001,0C7.613,0,0,7.607,0,16.998
			C0,26.384,7.613,34,17.001,34"/>
		<polygon fill="#FFFFFF" points="16.326,9.537 16.326,24.44 21.063,24.44 21.063,23.111 17.677,23.111 17.677,9.537 		"/>
		<path fill="#FFFFFF" d="M11.574,13.605c1.127,0,2.042-0.914,2.042-2.037c0-1.125-0.914-2.039-2.042-2.039
			c-1.121,0-2.035,0.914-2.035,2.039C9.539,12.691,10.453,13.605,11.574,13.605"/>
		<path fill="#FFFFFF" d="M17.677,2.775c-0.171-0.008-0.51-0.012-0.675-0.012c-7.841,0-14.225,6.385-14.225,14.23
			c0,3.799,1.475,7.373,4.159,10.059c2.695,2.69,6.27,4.167,10.066,4.167c3.798,0,7.373-1.477,10.066-4.167
			c2.686-2.686,4.16-6.26,4.16-10.059v-0.649l-0.568,0.004h-9.588v1.321h8.806v0.191c-0.453,6.71-6.054,12.03-12.875,12.03
			c-3.443,0-6.68-1.341-9.118-3.777c-2.439-2.435-3.781-5.674-3.781-9.12c0-3.445,1.342-6.686,3.781-9.121
			c2.438-2.439,5.675-3.781,9.118-3.781c0.157,0,0.52,0.005,0.675,0.009V2.775z"/>
	</g>
</g>
</svg>
